<svg width="89" height="25" viewBox="0 0 89 25" fill="none" xmlns="http://www.w3.org/2000/svg">
<path d="M21.44 1.376L13.6 16.48V24H8.096V16.48L0.256 1.376H6.528L10.88 10.592L15.232 1.376H21.44ZM41.3043 6.144V24H35.8003V20.768C35.2883 21.8133 34.5203 22.6453 33.4963 23.264C32.4936 23.8827 31.3203 24.192 29.9763 24.192C27.9283 24.192 26.2963 23.5093 25.0803 22.144C23.8856 20.7787 23.2883 18.9013 23.2883 16.512V6.144H28.7283V15.84C28.7283 17.056 29.0376 18.0053 29.6562 18.688C30.2963 19.3493 31.1496 19.68 32.2163 19.68C33.3256 19.68 34.2003 19.328 34.8403 18.624C35.4803 17.92 35.8003 16.9173 35.8003 15.616V6.144H41.3043ZM55.8915 24L50.5475 16.416V24H45.0755V0.32H50.5475V13.312L55.8915 6.144H62.3235L55.1235 15.072L62.4835 24H55.8915ZM81.4418 14.592C81.4418 15.04 81.3884 15.5307 81.2818 16.064H68.8978C68.9618 17.408 69.3031 18.3787 69.9218 18.976C70.5404 19.552 71.3298 19.84 72.2898 19.84C73.1004 19.84 73.7724 19.6373 74.3058 19.232C74.8391 18.8267 75.1911 18.304 75.3618 17.664H81.1538C80.9191 18.9227 80.4071 20.0533 79.6178 21.056C78.8284 22.0373 77.8258 22.816 76.6098 23.392C75.3938 23.9467 74.0391 24.224 72.5458 24.224C70.7964 24.224 69.2391 23.8613 67.8738 23.136C66.5298 22.3893 65.4738 21.3227 64.7057 19.936C63.9378 18.5493 63.5538 16.928 63.5538 15.072C63.5538 13.1947 63.9271 11.5733 64.6738 10.208C65.4418 8.82133 66.5084 7.76533 67.8738 7.04C69.2391 6.29333 70.7964 5.92 72.5458 5.92C74.3164 5.92 75.8738 6.28267 77.2178 7.008C78.5618 7.73333 79.5964 8.75733 80.3218 10.08C81.0684 11.3813 81.4418 12.8853 81.4418 14.592ZM75.9058 13.76C75.9271 12.5867 75.6071 11.712 74.9458 11.136C74.3058 10.5387 73.5058 10.24 72.5458 10.24C71.5431 10.24 70.7111 10.5387 70.0498 11.136C69.3884 11.7333 69.0151 12.608 68.9298 13.76H75.9058ZM88.9983 18.528V24H83.3343V18.528H88.9983Z" fill="white"/>
</svg>
