<svg width="36" height="16" viewBox="0 0 36 16" fill="none" xmlns="http://www.w3.org/2000/svg">
<g clip-path="url(#clip0_58_22)">
<path d="M27.9113 6.81299L27.1787 6.52002C23.7359 14.2668 10.0394 9.55712 9.2153 11.8617C9.07792 13.4184 16.6949 12.1577 22.1403 12.4215C23.8008 12.502 24.6335 13.7555 23.9284 15.7986L25.3172 15.8029C26.9193 10.8086 32.0321 13.3574 32.2458 11.7091C31.8947 10.6254 26.3698 11.7091 27.9113 6.81299Z" fill="white"/>
<path d="M24.3217 14.9447C24.5414 14.2121 24.4681 13.4796 24.1019 13.04C23.7356 12.6004 23.2228 12.3074 22.5634 12.2342L9.81655 12.0876C9.74331 12.0876 9.67007 12.0143 9.59683 12.0143C9.52359 11.9411 9.52359 11.8679 9.59683 11.7946C9.67007 11.6481 9.74331 11.5748 9.88979 11.5748L22.7099 11.4283C24.2484 11.355 25.8601 10.1097 26.4461 8.64455L27.1788 6.73986C27.1788 6.66648 27.252 6.59324 27.1788 6.52C26.3728 2.78386 23.003 0 19.047 0C15.3841 0 12.2341 2.34428 11.1352 5.64096C10.4026 5.12814 9.52359 4.83503 8.49793 4.90841C6.73972 5.05489 5.34786 6.52 5.128 8.2782C5.05476 8.71779 5.128 9.15738 5.20138 9.59682C2.34428 9.67007 0 12.0143 0 14.9447C0 15.2377 0 15.4575 0.0732414 15.7505C0.0732414 15.8971 0.219724 15.9703 0.293103 15.9703H23.8088C23.9553 15.9703 24.1019 15.8971 24.1019 15.7505L24.3217 14.9447Z" fill="#F4811F"/>
<path d="M28.3508 6.73975H27.9845C27.9113 6.73975 27.838 6.81299 27.7648 6.88623L27.2519 8.64444C27.0322 9.37699 27.1055 10.1097 27.4718 10.5491C27.838 10.9887 28.3508 11.2817 29.0101 11.3551L31.7208 11.5015C31.794 11.5015 31.8673 11.5748 31.9405 11.5748C32.0137 11.648 32.0137 11.7213 31.9405 11.7945C31.8673 11.9411 31.794 12.0144 31.6474 12.0144L28.8637 12.1609C27.3252 12.2341 25.7136 13.4795 25.1275 14.9446L24.9809 15.604C24.9077 15.6773 24.9809 15.8237 25.1275 15.8237H34.7976C34.9441 15.8237 35.0173 15.7505 35.0173 15.604C35.1638 15.018 35.3103 14.3586 35.3103 13.6992C35.3103 9.88982 32.1602 6.73975 28.3508 6.73975Z" fill="#FAAD3F"/>
</g>
<defs>
<clipPath id="clip0_58_22">
<rect width="35.3103" height="16" fill="white"/>
</clipPath>
</defs>
</svg>
