<svg width="16" height="16" viewBox="0 0 16 16" fill="none" xmlns="http://www.w3.org/2000/svg">
<g clip-path="url(#clip0_55_158)">
<path d="M5.33337 15.9999C6.80538 15.9999 8.00008 14.8052 8.00008 13.3332V10.6665H5.33337C3.86136 10.6665 2.66666 11.8612 2.66666 13.3332C2.66666 14.8052 3.86136 15.9999 5.33337 15.9999Z" fill="#0ACF83"/>
<path d="M2.66666 8.00018C2.66666 6.52818 3.86136 5.3335 5.33337 5.3335H8.00008V10.6668H5.33337C3.86136 10.6669 2.66666 9.47218 2.66666 8.00018Z" fill="#A259FF"/>
<path d="M2.66666 2.66669C2.66666 1.19469 3.86136 0 5.33337 0H8.00008V5.33331H5.33337C3.86136 5.33331 2.66666 4.13869 2.66666 2.66669Z" fill="#F24E1E"/>
<path d="M7.99992 0H10.6666C12.1386 0 13.3333 1.19469 13.3333 2.66669C13.3333 4.13869 12.1386 5.33331 10.6666 5.33331H7.99992V0Z" fill="#FF7262"/>
<path d="M13.3333 8.00018C13.3333 9.47218 12.1386 10.6669 10.6666 10.6669C9.19461 10.6669 7.99992 9.47218 7.99992 8.00018C7.99992 6.52818 9.19461 5.3335 10.6666 5.3335C12.1386 5.3335 13.3333 6.52818 13.3333 8.00018Z" fill="#1ABCFE"/>
</g>
<defs>
<clipPath id="clip0_55_158">
<rect width="16" height="16" fill="white"/>
</clipPath>
</defs>
</svg>
