<svg width="16" height="17" viewBox="0 0 16 17" fill="none" xmlns="http://www.w3.org/2000/svg">
<g clip-path="url(#clip0_55_29)">
<path fill-rule="evenodd" clip-rule="evenodd" d="M8.00016 0.833252C6.10098 0.834237 4.26407 1.50689 2.81789 2.73093C1.37172 3.95498 0.410582 5.65059 0.106343 7.51458C-0.197896 9.37858 0.174597 11.2894 1.15723 12.9054C2.13986 14.5213 3.66854 15.7371 5.46993 16.3352C5.86735 16.409 6.01704 16.1627 6.01704 15.9532C6.01704 15.7438 6.00909 15.1366 6.00644 14.4727C3.78091 14.9535 3.31064 13.5336 3.31064 13.5336C2.94766 12.6115 2.42307 12.3692 2.42307 12.3692C1.69712 11.8766 2.47739 11.8858 2.47739 11.8858C3.2815 11.9424 3.70408 12.7064 3.70408 12.7064C4.41678 13.9221 5.57591 13.5705 6.03161 13.365C6.10315 12.85 6.31113 12.4996 6.54031 12.3007C4.76253 12.1005 2.89467 11.4182 2.89467 8.3702C2.88365 7.57972 3.17866 6.81529 3.71865 6.23504C3.63652 6.03483 3.3623 5.22607 3.79681 4.12754C3.79681 4.12754 4.46845 3.91416 5.99718 4.94288C7.30842 4.58633 8.69189 4.58633 10.0031 4.94288C11.5305 3.91416 12.2008 4.12754 12.2008 4.12754C12.6367 5.22344 12.3625 6.03219 12.2803 6.23504C12.822 6.81538 13.1177 7.58115 13.1056 8.37283C13.1056 11.4274 11.2338 12.1005 9.45337 12.2967C9.73951 12.5444 9.99519 13.0278 9.99519 13.7707C9.99519 14.835 9.98591 15.6911 9.98591 15.9532C9.98591 16.1653 10.1303 16.4129 10.5357 16.3352C12.3373 15.737 13.8661 14.5211 14.8487 12.9048C15.8313 11.2886 16.2036 9.37745 15.899 7.51329C15.5945 5.64912 14.6329 3.95349 13.1862 2.72966C11.7395 1.50582 9.90221 0.833613 8.0028 0.833252H8.00016Z" fill="white"/>
<path d="M3.0296 12.2547C3.01238 12.2942 2.9488 12.306 2.89713 12.2784C2.84547 12.2507 2.80705 12.1993 2.8256 12.1585C2.84415 12.1177 2.90641 12.1071 2.95807 12.1348C3.00974 12.1625 3.04947 12.2152 3.0296 12.2547Z" fill="white"/>
<path d="M3.35417 12.6142C3.32674 12.6279 3.29535 12.6318 3.26539 12.625C3.23542 12.6183 3.20874 12.6014 3.18991 12.5773C3.13824 12.522 3.12764 12.4456 3.16738 12.4113C3.20712 12.3771 3.27866 12.3929 3.33033 12.4482C3.38199 12.5035 3.39391 12.5799 3.35417 12.6142Z" fill="white"/>
<path d="M3.66952 13.0714C3.6205 13.1056 3.53704 13.0714 3.49067 13.0029C3.47785 12.9906 3.46766 12.9758 3.46069 12.9595C3.45373 12.9433 3.45013 12.9257 3.45013 12.908C3.45013 12.8903 3.45373 12.8728 3.46069 12.8565C3.46766 12.8402 3.47785 12.8255 3.49067 12.8132C3.53969 12.7803 3.62315 12.8132 3.66952 12.8804C3.71588 12.9475 3.71721 13.0371 3.66952 13.0714Z" fill="white"/>
<path d="M4.09737 13.514C4.05365 13.5627 3.9649 13.5496 3.89204 13.4837C3.81918 13.4178 3.80195 13.3283 3.84567 13.2809C3.88939 13.2334 3.97814 13.2466 4.05365 13.3111C4.12916 13.3757 4.14373 13.4666 4.09737 13.514Z" fill="white"/>
<path d="M4.69747 13.772C4.6776 13.8339 4.58752 13.8616 4.49744 13.8352C4.40735 13.8089 4.34774 13.7351 4.36496 13.6719C4.38218 13.6087 4.47359 13.5797 4.565 13.6087C4.6564 13.6377 4.71469 13.7075 4.69747 13.772Z" fill="white"/>
<path d="M5.35189 13.8169C5.35189 13.8814 5.27771 13.9367 5.18233 13.938C5.08695 13.9394 5.00879 13.8867 5.00879 13.8221C5.00879 13.7576 5.08297 13.7023 5.17835 13.701C5.27373 13.6996 5.35189 13.751 5.35189 13.8169Z" fill="white"/>
<path d="M5.96124 13.7154C5.97317 13.78 5.90693 13.8472 5.81155 13.863C5.71617 13.8788 5.63271 13.8406 5.62079 13.7774C5.60887 13.7141 5.67775 13.6456 5.77048 13.6285C5.86321 13.6114 5.94932 13.6509 5.96124 13.7154Z" fill="white"/>
</g>
<defs>
<clipPath id="clip0_55_29">
<rect width="16" height="16" fill="white" transform="translate(0 0.5)"/>
</clipPath>
</defs>
</svg>
