<svg width="16" height="17" viewBox="0 0 16 17" fill="none" xmlns="http://www.w3.org/2000/svg">
<g clip-path="url(#clip0_55_2)">
<path d="M8 1.94063C10.1375 1.94063 10.3906 1.95 11.2313 1.9875C12.0125 2.02188 12.4344 2.15313 12.7156 2.2625C13.0875 2.40625 13.3563 2.58125 13.6344 2.85938C13.9156 3.14063 14.0875 3.40625 14.2313 3.77813C14.3406 4.05938 14.4719 4.48438 14.5063 5.2625C14.5438 6.10625 14.5531 6.35938 14.5531 8.49375C14.5531 10.6313 14.5438 10.8844 14.5063 11.725C14.4719 12.5063 14.3406 12.9281 14.2313 13.2094C14.0875 13.5813 13.9125 13.85 13.6344 14.1281C13.3531 14.4094 13.0875 14.5813 12.7156 14.725C12.4344 14.8344 12.0094 14.9656 11.2313 15C10.3875 15.0375 10.1344 15.0469 8 15.0469C5.8625 15.0469 5.60938 15.0375 4.76875 15C3.9875 14.9656 3.56563 14.8344 3.28438 14.725C2.9125 14.5813 2.64375 14.4063 2.36563 14.1281C2.08438 13.8469 1.9125 13.5813 1.76875 13.2094C1.65938 12.9281 1.52813 12.5031 1.49375 11.725C1.45625 10.8813 1.44688 10.6281 1.44688 8.49375C1.44688 6.35625 1.45625 6.10313 1.49375 5.2625C1.52813 4.48125 1.65938 4.05938 1.76875 3.77813C1.9125 3.40625 2.0875 3.1375 2.36563 2.85938C2.64688 2.57813 2.9125 2.40625 3.28438 2.2625C3.56563 2.15313 3.99063 2.02188 4.76875 1.9875C5.60938 1.95 5.8625 1.94063 8 1.94063ZM8 0.5C5.82813 0.5 5.55625 0.509375 4.70313 0.546875C3.85313 0.584375 3.26875 0.721875 2.7625 0.91875C2.23438 1.125 1.7875 1.39688 1.34375 1.84375C0.896875 2.2875 0.625 2.73438 0.41875 3.25938C0.221875 3.76875 0.084375 4.35 0.046875 5.2C0.009375 6.05625 0 6.32813 0 8.5C0 10.6719 0.009375 10.9438 0.046875 11.7969C0.084375 12.6469 0.221875 13.2313 0.41875 13.7375C0.625 14.2656 0.896875 14.7125 1.34375 15.1563C1.7875 15.6 2.23438 15.875 2.75938 16.0781C3.26875 16.275 3.85 16.4125 4.7 16.45C5.55313 16.4875 5.825 16.4969 7.99688 16.4969C10.1688 16.4969 10.4406 16.4875 11.2938 16.45C12.1438 16.4125 12.7281 16.275 13.2344 16.0781C13.7594 15.875 14.2063 15.6 14.65 15.1563C15.0938 14.7125 15.3688 14.2656 15.5719 13.7406C15.7688 13.2313 15.9063 12.65 15.9438 11.8C15.9813 10.9469 15.9906 10.675 15.9906 8.50313C15.9906 6.33125 15.9813 6.05938 15.9438 5.20625C15.9063 4.35625 15.7688 3.77188 15.5719 3.26563C15.375 2.73438 15.1031 2.2875 14.6563 1.84375C14.2125 1.4 13.7656 1.125 13.2406 0.921875C12.7313 0.725 12.15 0.5875 11.3 0.55C10.4438 0.509375 10.1719 0.5 8 0.5Z" fill="white"/>
<path d="M8 4.39062C5.73125 4.39062 3.89062 6.23125 3.89062 8.5C3.89062 10.7688 5.73125 12.6094 8 12.6094C10.2688 12.6094 12.1094 10.7688 12.1094 8.5C12.1094 6.23125 10.2688 4.39062 8 4.39062ZM8 11.1656C6.52813 11.1656 5.33437 9.97188 5.33437 8.5C5.33437 7.02813 6.52813 5.83437 8 5.83437C9.47188 5.83437 10.6656 7.02813 10.6656 8.5C10.6656 9.97188 9.47188 11.1656 8 11.1656Z" fill="white"/>
<path d="M13.2312 4.22818C13.2312 4.75943 12.8 5.18755 12.2719 5.18755C11.7406 5.18755 11.3125 4.7563 11.3125 4.22818C11.3125 3.69692 11.7438 3.2688 12.2719 3.2688C12.8 3.2688 13.2312 3.70005 13.2312 4.22818Z" fill="white"/>
</g>
<defs>
<clipPath id="clip0_55_2">
<rect width="16" height="16" fill="white" transform="translate(0 0.5)"/>
</clipPath>
</defs>
</svg>
