<svg width="16" height="17" viewBox="0 0 16 17" fill="none" xmlns="http://www.w3.org/2000/svg">
<g clip-path="url(#clip0_55_52)">
<path d="M14.8156 0.5H1.18125C0.528125 0.5 0 1.01563 0 1.65313V15.3438C0 15.9813 0.528125 16.5 1.18125 16.5H14.8156C15.4688 16.5 16 15.9813 16 15.3469V1.65313C16 1.01563 15.4688 0.5 14.8156 0.5ZM4.74687 14.1344H2.37188V6.49687H4.74687V14.1344ZM3.55938 5.45625C2.79688 5.45625 2.18125 4.84062 2.18125 4.08125C2.18125 3.32188 2.79688 2.70625 3.55938 2.70625C4.31875 2.70625 4.93437 3.32188 4.93437 4.08125C4.93437 4.8375 4.31875 5.45625 3.55938 5.45625ZM13.6344 14.1344H11.2625V10.4219C11.2625 9.5375 11.2469 8.39687 10.0281 8.39687C8.79375 8.39687 8.60625 9.3625 8.60625 10.3594V14.1344H6.2375V6.49687H8.5125V7.54063H8.54375C8.85938 6.94063 9.63438 6.30625 10.7875 6.30625C13.1906 6.30625 13.6344 7.8875 13.6344 9.94375V14.1344Z" fill="white"/>
</g>
<defs>
<clipPath id="clip0_55_52">
<rect width="16" height="16" fill="white" transform="translate(0 0.5)"/>
</clipPath>
</defs>
</svg>
