<svg width="16" height="17" viewBox="0 0 16 17" fill="none" xmlns="http://www.w3.org/2000/svg">
<g clip-path="url(#clip0_55_93)">
<path fill-rule="evenodd" clip-rule="evenodd" d="M16 8.5C16 12.9183 12.4183 16.5 8 16.5C3.58172 16.5 0 12.9183 0 8.5C0 4.08172 3.58172 0.5 8 0.5C12.4183 0.5 16 4.08172 16 8.5ZM8.28668 6.40595C7.50857 6.7296 5.95342 7.39946 3.62126 8.41555C3.24255 8.56615 3.04417 8.71348 3.02611 8.85754C2.99559 9.101 3.30048 9.19687 3.71565 9.32742C3.77212 9.34517 3.83064 9.36357 3.89062 9.38307C4.29909 9.51585 4.84855 9.67118 5.13419 9.67735C5.3933 9.68295 5.68249 9.57613 6.00176 9.35689C8.18077 7.886 9.30559 7.14254 9.37621 7.12651C9.42603 7.11521 9.49507 7.10099 9.54184 7.14256C9.58862 7.18414 9.58402 7.26288 9.57907 7.284C9.54887 7.41276 8.35209 8.52539 7.73275 9.10118C7.53967 9.28069 7.40272 9.40801 7.37472 9.43709C7.312 9.50223 7.24808 9.56385 7.18665 9.62307C6.80718 9.98889 6.52261 10.2632 7.20241 10.7112C7.52909 10.9265 7.7905 11.1045 8.0513 11.2821C8.33611 11.4761 8.62019 11.6695 8.98774 11.9104C9.08138 11.9718 9.17082 12.0356 9.25793 12.0977C9.58938 12.334 9.88717 12.5463 10.2551 12.5124C10.4688 12.4928 10.6896 12.2917 10.8018 11.6922C11.0668 10.2754 11.5878 7.20564 11.7081 5.94065C11.7187 5.82982 11.7054 5.68798 11.6948 5.62572C11.6841 5.56345 11.6618 5.47474 11.5809 5.40907C11.4851 5.33129 11.3371 5.31489 11.2709 5.31606C10.97 5.32136 10.5084 5.48188 8.28668 6.40595Z" fill="white"/>
</g>
<defs>
<clipPath id="clip0_55_93">
<rect width="16" height="16" fill="white" transform="translate(0 0.5)"/>
</clipPath>
</defs>
</svg>
