<svg width="16" height="17" viewBox="0 0 16 17" fill="none" xmlns="http://www.w3.org/2000/svg">
<g clip-path="url(#clip0_55_65)">
<path d="M5.03344 15C11.0697 15 14.3722 9.9978 14.3722 5.66124C14.3722 5.52062 14.3691 5.37687 14.3628 5.23624C15.0052 4.77164 15.5597 4.19617 16 3.53687C15.4017 3.80307 14.7664 3.97692 14.1159 4.05249C14.8009 3.64194 15.3137 2.99698 15.5594 2.23718C14.915 2.61904 14.2104 2.88841 13.4756 3.03374C12.9806 2.50771 12.326 2.15941 11.6131 2.0427C10.9003 1.92599 10.1688 2.04737 9.53183 2.38806C8.89486 2.72876 8.38787 3.2698 8.08923 3.92754C7.7906 4.58528 7.71695 5.32308 7.87969 6.02687C6.575 5.96139 5.29862 5.62247 4.13332 5.03207C2.96802 4.44166 1.9398 3.61296 1.11531 2.59968C0.696266 3.32216 0.568038 4.1771 0.756687 4.99073C0.945337 5.80436 1.43671 6.51563 2.13094 6.97999C1.60975 6.96344 1.09998 6.82312 0.64375 6.57061V6.61124C0.643283 7.36943 0.905399 8.10439 1.38554 8.69118C1.86568 9.27797 2.53422 9.68037 3.2775 9.82999C2.7947 9.96209 2.28799 9.98133 1.79656 9.88624C2.0063 10.5383 2.41438 11.1086 2.96385 11.5176C3.51331 11.9265 4.17675 12.1537 4.86156 12.1675C3.69895 13.0807 2.26278 13.5761 0.784375 13.5737C0.522191 13.5733 0.260266 13.5573 0 13.5256C1.5019 14.4892 3.24902 15.0009 5.03344 15Z" fill="white"/>
</g>
<defs>
<clipPath id="clip0_55_65">
<rect width="16" height="16" fill="white" transform="translate(0 0.5)"/>
</clipPath>
</defs>
</svg>
