<svg width="16" height="17" viewBox="0 0 16 17" fill="none" xmlns="http://www.w3.org/2000/svg">
<path d="M15.8406 5.29995C15.8406 5.29995 15.6844 4.19683 15.2031 3.71245C14.5938 3.07495 13.9125 3.07183 13.6 3.03433C11.3625 2.87183 8.00313 2.87183 8.00313 2.87183H7.99687C7.99687 2.87183 4.6375 2.87183 2.4 3.03433C2.0875 3.07183 1.40625 3.07495 0.796875 3.71245C0.315625 4.19683 0.1625 5.29995 0.1625 5.29995C0.1625 5.29995 0 6.59683 0 7.89058V9.10308C0 10.3968 0.159375 11.6937 0.159375 11.6937C0.159375 11.6937 0.315625 12.7968 0.79375 13.2812C1.40313 13.9187 2.20313 13.8968 2.55938 13.9656C3.84063 14.0875 8 14.125 8 14.125C8 14.125 11.3625 14.1187 13.6 13.9593C13.9125 13.9218 14.5938 13.9187 15.2031 13.2812C15.6844 12.7968 15.8406 11.6937 15.8406 11.6937C15.8406 11.6937 16 10.4 16 9.10308V7.89058C16 6.59683 15.8406 5.29995 15.8406 5.29995ZM6.34688 10.575V6.07808L10.6687 8.33433L6.34688 10.575Z" fill="white"/>
</svg>
