<svg id="ewet47xn29t1" xmlns="http://www.w3.org/2000/svg" xmlns:xlink="http://www.w3.org/1999/xlink" viewBox="0 0 500 372.560000" shape-rendering="geometricPrecision" text-rendering="geometricPrecision"><style><![CDATA[#ewet47xn29t2 {animation: ewet47xn29t2_c_o 6000ms linear infinite normal forwards}@keyframes ewet47xn29t2_c_o { 0% {opacity: 0} 10% {opacity: 1} 100% {opacity: 1} }#ewet47xn29t52 {animation: ewet47xn29t52_c_o 6000ms linear infinite normal forwards}@keyframes ewet47xn29t52_c_o { 0% {opacity: 0} 16.666667% {opacity: 1} 100% {opacity: 1} }#ewet47xn29t54_to {animation: ewet47xn29t54_to__to 6000ms linear infinite normal forwards}@keyframes ewet47xn29t54_to__to { 0% {transform: translate(338.555008px,402.300002px)} 10% {transform: translate(338.555008px,402.300002px);animation-timing-function: cubic-bezier(0.645000,0.045000,0.355000,1)} 16.666667% {transform: translate(338.555008px,332.300002px)} 100% {transform: translate(338.555008px,332.300002px)} }#ewet47xn29t75_to {animation: ewet47xn29t75_to__to 6000ms linear infinite normal forwards}@keyframes ewet47xn29t75_to__to { 0% {transform: translate(160.775002px,398.685007px)} 6.666667% {transform: translate(160.775002px,398.685007px);animation-timing-function: cubic-bezier(0.645000,0.045000,0.355000,1)} 13.333333% {transform: translate(160.775002px,338.685007px)} 100% {transform: translate(160.775002px,338.685007px)} }#ewet47xn29t84_to {animation: ewet47xn29t84_to__to 6000ms linear infinite normal forwards}@keyframes ewet47xn29t84_to__to { 0% {transform: translate(250.000015px,505.309990px);animation-timing-function: cubic-bezier(0.645000,0.045000,0.355000,1)} 10% {transform: translate(250.000015px,235.309993px)} 100% {transform: translate(250.000015px,235.309993px)} }#ewet47xn29t84_ts {animation: ewet47xn29t84_ts__ts 6000ms linear infinite normal forwards}@keyframes ewet47xn29t84_ts__ts { 0% {transform: scale(0,0);animation-timing-function: cubic-bezier(0.645000,0.045000,0.355000,1)} 10% {transform: scale(1,1)} 100% {transform: scale(1,1)} }#ewet47xn29t145_to {animation: ewet47xn29t145_to__to 6000ms linear infinite normal forwards}@keyframes ewet47xn29t145_to__to { 0% {transform: translate(568.998367px,235.216187px);animation-timing-function: cubic-bezier(0.645000,0.045000,0.355000,1)} 10% {transform: translate(408.997232px,235.216187px);animation-timing-function: cubic-bezier(0.645000,0.045000,0.355000,1)} 16.666667% {transform: translate(408.997232px,225.216187px)} 33.333333% {transform: translate(408.997232px,235.217358px)} 50% {transform: translate(408.997232px,225.216187px)} 66.666667% {transform: translate(408.997232px,235.217358px)} 83.333333% {transform: translate(408.997232px,225.217358px)} 100% {transform: translate(408.997232px,225.217358px)} }#ewet47xn29t183_to {animation: ewet47xn29t183_to__to 6000ms linear infinite normal forwards}@keyframes ewet47xn29t183_to__to { 0% {transform: translate(-75.194736px,222.877335px);animation-timing-function: cubic-bezier(0.645000,0.045000,0.355000,1)} 10% {transform: translate(94.800364px,222.877335px);animation-timing-function: cubic-bezier(0.645000,0.045000,0.355000,1)} 26.666667% {transform: translate(94.800364px,212.877335px)} 43.333333% {transform: translate(94.800364px,222.872651px)} 60% {transform: translate(94.800364px,212.877335px)} 76.666667% {transform: translate(94.800364px,222.872651px)} 93.333333% {transform: translate(94.800364px,212.872651px)} 100% {transform: translate(94.800364px,212.872651px)} }]]></style><g id="ewet47xn29t2" opacity="0"><rect id="ewet47xn29t3" width="500" height="0.250000" rx="0" ry="0" transform="matrix(1 0 0 1 0 327.39999999999998)" fill="rgb(235,235,235)" stroke="none" stroke-width="1"/><rect id="ewet47xn29t4" width="33.120000" height="0.250000" rx="0" ry="0" transform="matrix(1 0 0 1 416.77999999999997 343.49000000000001)" fill="rgb(235,235,235)" stroke="none" stroke-width="1"/><rect id="ewet47xn29t5" width="8.690000" height="0.250000" rx="0" ry="0" transform="matrix(1 0 0 1 322.52999999999997 346.20999999999998)" fill="rgb(235,235,235)" stroke="none" stroke-width="1"/><rect id="ewet47xn29t6" width="19.190000" height="0.250000" rx="0" ry="0" transform="matrix(1 0 0 1 396.58999999999997 334.20999999999998)" fill="rgb(235,235,235)" stroke="none" stroke-width="1"/><rect id="ewet47xn29t7" width="43.190000" height="0.250000" rx="0" ry="0" transform="matrix(1 0 0 1 52.46000000000000 335.88999999999999)" fill="rgb(235,235,235)" stroke="none" stroke-width="1"/><rect id="ewet47xn29t8" width="6.330000" height="0.250000" rx="0" ry="0" transform="matrix(1 0 0 1 104.56000000000000 335.88999999999999)" fill="rgb(235,235,235)" stroke="none" stroke-width="1"/><rect id="ewet47xn29t9" width="93.680000" height="0.250000" rx="0" ry="0" transform="matrix(1 0 0 1 131.47000000000000 340.11000000000001)" fill="rgb(235,235,235)" stroke="none" stroke-width="1"/><path id="ewet47xn29t10" d="M237,287.800000L43.910000,287.800000C40.760360,287.794484,38.209995,285.239645,38.210000,282.090000L38.210000,10.660000C38.237405,7.529892,40.779776,5.005362,43.910000,5L237,5C238.514386,5,239.966747,5.601588,241.037580,6.672420C242.108412,7.743253,242.710000,9.195614,242.710000,10.710000L242.710000,10.710000L242.710000,282.090000C242.710000,283.604386,242.108412,285.056747,241.037580,286.127580C239.966747,287.198412,238.514386,287.800000,237,287.800000ZM43.910000,5.200000C40.898431,5.205516,38.459995,7.648426,38.460000,10.660000L38.460000,282.090000C38.459995,285.101574,40.898431,287.544484,43.910000,287.550000L237,287.550000C240.013192,287.544496,242.454496,285.103192,242.460000,282.090000L242.460000,10.660000C242.454496,7.646808,240.013192,5.205504,237,5.200000Z" transform="matrix(1 0 0 1 0 -5)" fill="rgb(235,235,235)" stroke="none" stroke-width="1"/><path id="ewet47xn29t11" d="M453.310000,287.800000L260.210000,287.800000C257.058737,287.794496,254.505504,285.241263,254.500000,282.090000L254.500000,10.660000C254.532848,7.528280,257.078113,5.005303,260.210000,5L453.310000,5C456.436323,5.010831,458.972643,7.533778,459,10.660000L459,282.090000C459.000019,285.235752,456.455733,287.788982,453.310000,287.800000ZM260.210000,5.200000C257.196808,5.205504,254.755504,7.646808,254.750000,10.660000L254.750000,282.090000C254.755504,285.103192,257.196808,287.544496,260.210000,287.550000L453.310000,287.550000C456.323192,287.544496,458.764496,285.103192,458.770000,282.090000L458.770000,10.660000C458.764496,7.646808,456.323192,5.205504,453.310000,5.200000Z" transform="matrix(1 0 0 1 0 -5)" fill="rgb(235,235,235)" stroke="none" stroke-width="1"/><path id="ewet47xn29t12" d="M353.930000,48.140000C353.932655,46.845743,353.421058,45.603440,352.507755,44.686387C351.594452,43.769333,350.354257,43.252649,349.060000,43.250000L349,43.250000C348.522922,43.249863,348.048221,43.317196,347.590000,43.450000C347.662171,42.953239,347.698930,42.451975,347.700000,41.950000C347.700043,36.249437,343.090520,31.622031,337.390000,31.600000C336.749585,31.600653,336.110464,31.657538,335.480000,31.770000C333.429706,28.244197,329.264690,26.537917,325.330019,27.611862C321.395349,28.685806,318.674739,32.271477,318.700000,36.350000L318.550000,36.350000C314.053569,36.505675,310.488920,40.195875,310.488920,44.695000C310.488920,49.194125,314.053569,52.884325,318.550000,53.040000L349.170000,53.040000C351.821369,52.964216,353.931083,50.792451,353.930000,48.140000Z" transform="matrix(1 0 0 1 0 -5)" fill="rgb(240,240,240)" stroke="none" stroke-width="1"/><polygon id="ewet47xn29t13" points="335.950000,50.450000 335.950000,40.920000 328.180000,40.920000 328.180000,50.450000 321.850000,50.450000 332.070000,59.090000 342.290000,50.450000 335.950000,50.450000" fill="rgb(224,224,224)" stroke="none" stroke-width="1"/><path id="ewet47xn29t14" d="M200.680000,62.560000C200.680003,56.825664,196.034333,52.175519,190.300000,52.170000C189.284030,52.171451,188.273597,52.319648,187.300000,52.610000C187.461303,51.554351,187.541537,50.487900,187.540000,49.420000C187.540000,37.269736,177.690264,27.420000,165.540000,27.420000C164.181085,27.419693,162.825140,27.546918,161.490000,27.800000C157.037941,20.479054,148.277494,16.989306,140.011035,19.243795C131.744576,21.498284,125.968832,28.952448,125.850000,37.520000L125.530000,37.520000C115.756779,37.303652,107.654511,45.042790,107.422809,54.815659C107.191107,64.588529,114.917507,72.702944,124.690000,72.950000L190.580000,72.950000C196.206965,72.798163,200.687471,68.189009,200.680000,62.560000Z" transform="matrix(1 0 0 1 0 -5)" fill="rgb(240,240,240)" stroke="none" stroke-width="1"/><polygon id="ewet47xn29t15" points="146,58.360000 146,78.610000 162.510000,78.610000 162.510000,58.360000 175.960000,58.360000 154.250000,40.020000 132.550000,58.360000 146,58.360000" fill="rgb(224,224,224)" stroke="none" stroke-width="1"/><polyline id="ewet47xn29t16" points="208.970000,108.130000 208.970000,80.900000 292.350000,80.900000 292.350000,107.860000" fill="none" stroke="rgb(230,230,230)" stroke-width="1" stroke-miterlimit="10"/><line id="ewet47xn29t17" x1="251.890000" y1="55.240000" x2="251.890000" y2="108.060000" fill="none" stroke="rgb(230,230,230)" stroke-width="1" stroke-miterlimit="10"/><rect id="ewet47xn29t18" width="30.740000" height="19.250000" rx="1.190000" ry="1.190000" transform="matrix(1 0 0 1 236.53000000000000 44.87000000000000)" fill="rgb(240,240,240)" stroke="none" stroke-width="1"/><rect id="ewet47xn29t19" width="28.610000" height="16.220000" rx="0.420000" ry="0.420000" transform="matrix(1 0 0 1 237.59000000000000 47.13000000000000)" fill="rgb(224,224,224)" stroke="none" stroke-width="1"/><rect id="ewet47xn29t20" width="30.740000" height="19.250000" rx="1.190000" ry="1.190000" transform="matrix(1 0 0 1 193.59999999999999 105.66000000000000)" fill="rgb(240,240,240)" stroke="none" stroke-width="1"/><rect id="ewet47xn29t21" width="28.610000" height="16.220000" rx="0.420000" ry="0.420000" transform="matrix(1 0 0 1 194.66000000000000 107.92000000000000)" fill="rgb(224,224,224)" stroke="none" stroke-width="1"/><rect id="ewet47xn29t22" width="30.740000" height="19.250000" rx="1.190000" ry="1.190000" transform="matrix(1 0 0 1 236.53000000000000 105.66000000000000)" fill="rgb(240,240,240)" stroke="none" stroke-width="1"/><rect id="ewet47xn29t23" width="28.610000" height="16.220000" rx="0.420000" ry="0.420000" transform="matrix(1 0 0 1 237.59000000000000 107.92000000000000)" fill="rgb(224,224,224)" stroke="none" stroke-width="1"/><rect id="ewet47xn29t24" width="30.740000" height="19.250000" rx="1.190000" ry="1.190000" transform="matrix(1 0 0 1 277.05000000000001 105.66000000000000)" fill="rgb(240,240,240)" stroke="none" stroke-width="1"/><rect id="ewet47xn29t25" width="28.610000" height="16.220000" rx="0.420000" ry="0.420000" transform="matrix(1 0 0 1 278.11000000000001 107.92000000000000)" fill="rgb(224,224,224)" stroke="none" stroke-width="1"/><rect id="ewet47xn29t26" width="12.480000" height="12.480000" rx="0.810000" ry="0.810000" transform="matrix(0.70710700000000 -0.70710700000000 0.70710700000000 0.70710700000000 243.05897817000007 80.89730907000001)" fill="rgb(224,224,224)" stroke="none" stroke-width="1"/><rect id="ewet47xn29t27" style="isolation:isolate" width="21.750000" height="13.030000" rx="0.870000" ry="0.870000" transform="matrix(1 0 0 1 68.20999999999999 67.65000000000001)" opacity="0.8" fill="rgb(224,224,224)" stroke="none" stroke-width="1"/><rect id="ewet47xn29t28" width="17.590000" height="9.950000" rx="0.870000" ry="0.870000" transform="matrix(1 0 0 1 57.10000000000000 95.68000000000001)" fill="rgb(224,224,224)" stroke="none" stroke-width="1"/><rect id="ewet47xn29t29" width="17.590000" height="9.950000" rx="0.870000" ry="0.870000" transform="matrix(1 0 0 1 83.79000000000001 95.68000000000001)" fill="rgb(224,224,224)" stroke="none" stroke-width="1"/><rect id="ewet47xn29t30" width="9.230000" height="8.500000" rx="0.870000" ry="0.870000" transform="matrix(1 0 0 1 75.73999999999999 116.73999999999999)" fill="rgb(224,224,224)" stroke="none" stroke-width="1"/><rect id="ewet47xn29t31" width="9.230000" height="8.500000" rx="0.870000" ry="0.870000" transform="matrix(1 0 0 1 87.45999999999999 116.73999999999999)" fill="rgb(224,224,224)" stroke="none" stroke-width="1"/><rect id="ewet47xn29t32" width="9.230000" height="8.500000" rx="0.870000" ry="0.870000" transform="matrix(1 0 0 1 99.19000000000000 116.73999999999999)" fill="rgb(224,224,224)" stroke="none" stroke-width="1"/><rect id="ewet47xn29t33" width="9.230000" height="8.500000" rx="0.870000" ry="0.870000" transform="matrix(1 0 0 1 48.61000000000000 116.73999999999999)" fill="rgb(224,224,224)" stroke="none" stroke-width="1"/><rect id="ewet47xn29t34" width="9.230000" height="8.500000" rx="0.870000" ry="0.870000" transform="matrix(1 0 0 1 61.33000000000000 116.73999999999999)" fill="rgb(224,224,224)" stroke="none" stroke-width="1"/><polygon id="ewet47xn29t35" points="91.580000,95.680000 92.580000,95.680000 92.580000,88.680000 79.580000,88.680000 79.580000,80.680000 78.580000,80.680000 78.580000,88.680000 65.580000,88.680000 65.580000,95.680000 66.580000,95.680000 66.580000,89.680000 91.580000,89.680000 91.580000,95.680000" fill="rgb(224,224,224)" stroke="none" stroke-width="1"/><polygon id="ewet47xn29t36" points="65.580000,111.680000 52.580000,111.680000 52.580000,116.680000 53.580000,116.680000 53.580000,112.680000 65.580000,112.680000 65.580000,116.680000 66.580000,116.680000 66.580000,105.680000 65.580000,105.680000 65.580000,111.680000" fill="rgb(224,224,224)" stroke="none" stroke-width="1"/><polygon id="ewet47xn29t37" points="92.580000,112.680000 92.580000,105.680000 91.580000,105.680000 91.580000,112.680000 79.580000,112.680000 79.580000,116.680000 80.580000,116.680000 80.580000,113.680000 91.580000,113.680000 91.580000,116.680000 92.580000,116.680000 92.580000,113.680000 103.580000,113.680000 103.580000,116.680000 104.580000,116.680000 104.580000,112.680000 92.580000,112.680000" fill="rgb(224,224,224)" stroke="none" stroke-width="1"/><path id="ewet47xn29t38" d="M381,75.780000L381,83L384.700000,83.350000C385.195180,85.720027,386.131435,87.975859,387.460000,90L385.080000,92.870000L390.160000,97.950000L393,95.560000C395.018971,96.891453,397.272101,97.827996,399.640000,98.320000L400,102L407.180000,102L407.530000,98.300000C409.897899,97.807996,412.151029,96.871453,414.170000,95.540000L417,97.920000L422.080000,92.840000L419.750000,90C421.077417,87.978886,422.013629,85.726549,422.510000,83.360000L426.210000,83.010000L426.210000,75.830000L422.510000,75.480000C422.015409,73.116010,421.079015,70.866628,419.750000,68.850000L422.130000,66L417.050000,60.920000L414.180000,63.290000C412.158886,61.962583,409.906549,61.026371,407.540000,60.530000L407.190000,56.830000L400,56.830000L399.650000,60.530000C397.281369,61.019039,395.025622,61.948475,393,63.270000L390.130000,60.900000L385.060000,66L387.440000,68.870000C386.110985,70.886628,385.174591,73.136010,384.680000,75.500000ZM403.610000,69.650000C408.983731,69.650000,413.340000,74.006269,413.340000,79.380000C413.340000,84.753731,408.983731,89.110000,403.610000,89.110000C398.236269,89.110000,393.880000,84.753731,393.880000,79.380000L393.880000,79.380000C393.885512,74.014077,398.234077,69.665512,403.600000,69.660000Z" transform="matrix(1 0 0 1 0 -5)" fill="rgb(245,245,245)" stroke="none" stroke-width="1"/><path id="ewet47xn29t39" d="M385.630000,128.200000C387.484346,127.810025,389.248511,127.073826,390.830000,126.030000L393.080000,127.900000L397.080000,123.900000L395.220000,121.650000C396.259037,120.067094,396.991723,118.303221,397.380000,116.450000L400.280000,116.170000L400.280000,110.540000L397.380000,110.270000C396.994706,108.415857,396.261795,106.651443,395.220000,105.070000L397.080000,102.820000L393.080000,98.820000L390.830000,100.680000C389.248557,99.638205,387.484143,98.905294,385.630000,98.520000L385.360000,95.620000L379.730000,95.620000L379.460000,98.520000C377.605857,98.905294,375.841443,99.638205,374.260000,100.680000L372,98.860000L368,102.860000L369.860000,105.110000C368.818205,106.691443,368.085294,108.455857,367.700000,110.310000L364.800000,110.580000L364.800000,116.210000L367.700000,116.490000C368.088277,118.343221,368.820963,120.107094,369.860000,121.690000L368,123.920000L372,127.920000L374.250000,126.050000C375.831489,127.093826,377.595654,127.830025,379.450000,128.220000L379.720000,131.110000L385.350000,131.110000ZM374.920000,113.380000C374.914481,109.166073,378.326068,105.745535,382.539996,105.740013C386.753923,105.734491,390.174463,109.146077,390.179987,113.360004C390.185511,117.573932,386.773927,120.994474,382.560000,121L382.560000,121C380.536398,121.002654,378.594623,120.201325,377.161844,118.772298C375.729066,117.343270,374.922650,115.403602,374.920000,113.380000Z" transform="matrix(1 0 0 1 0 -5)" fill="rgb(245,245,245)" stroke="none" stroke-width="1"/><path id="ewet47xn29t40" d="M373.070000,97.730000L375,99.290000L378.350000,95.950000L376.780000,94.060000C377.656884,92.731175,378.274413,91.248427,378.600000,89.690000L381.030000,89.460000L381.030000,84.740000L378.600000,84.510000C378.274413,82.951573,377.656884,81.468825,376.780000,80.140000L378.350000,78.250000L375,74.910000L373.110000,76.470000C371.783747,75.595119,370.304662,74.977703,368.750000,74.650000L368.520000,72.220000L363.790000,72.220000L363.560000,74.650000C362.001573,74.975587,360.518825,75.593116,359.190000,76.470000L357.300000,74.910000L354,78.250000L355.560000,80.140000C354.686424,81.469459,354.072289,82.952205,353.750000,84.510000L351.310000,84.740000L351.310000,89.460000L353.750000,89.690000C354.072289,91.247795,354.686424,92.730541,355.560000,94.060000L353.920000,96L357.260000,99.340000L359.150000,97.780000C360.477270,98.657701,361.960836,99.272175,363.520000,99.590000L363.750000,102.030000L368.480000,102.030000L368.710000,99.590000C370.269039,99.254943,371.749195,98.623500,373.070000,97.730000ZM359.710000,87.100000C359.710000,84.511442,361.269310,82.177769,363.660826,81.187171C366.052342,80.196573,368.805096,80.744129,370.635483,82.574517C372.465871,84.404904,373.013427,87.157658,372.022829,89.549174C371.032231,91.940690,368.698558,93.500000,366.110000,93.500000L366.110000,93.500000C362.575378,93.500000,359.710000,90.634622,359.710000,87.100000Z" transform="matrix(1 0 0 1 0 -5)" fill="rgb(245,245,245)" stroke="none" stroke-width="1"/><rect id="ewet47xn29t41" width="67.150000" height="43.670000" rx="0" ry="0" transform="matrix(1 0 0 1 372.24000000000001 269.02999999999997)" fill="rgb(245,245,245)" stroke="none" stroke-width="1"/><rect id="ewet47xn29t42" width="62.230000" height="33.300000" rx="0" ry="0" transform="matrix(1 0 0 1 374.69000000000000 277.22000000000003)" fill="rgb(224,224,224)" stroke="none" stroke-width="1"/><rect id="ewet47xn29t43" width="46.040000" height="1.430000" rx="0" ry="0" transform="matrix(1 0 0 1 379.75999999999999 282.19999999999999)" fill="rgb(245,245,245)" stroke="none" stroke-width="1"/><rect id="ewet47xn29t44" width="22.090000" height="1.430000" rx="0" ry="0" transform="matrix(1 0 0 1 379.75999999999999 286.57999999999998)" fill="rgb(245,245,245)" stroke="none" stroke-width="1"/><rect id="ewet47xn29t45" width="27.820000" height="1.430000" rx="0" ry="0" transform="matrix(1 0 0 1 379.75999999999999 290.97000000000003)" fill="rgb(245,245,245)" stroke="none" stroke-width="1"/><rect id="ewet47xn29t46" width="9.800000" height="1.430000" rx="0" ry="0" transform="matrix(1 0 0 1 379.75999999999999 295.36000000000001)" fill="rgb(245,245,245)" stroke="none" stroke-width="1"/><rect id="ewet47xn29t47" width="6.350000" height="1.430000" rx="0" ry="0" transform="matrix(1 0 0 1 379.75999999999999 299.75000000000000)" fill="rgb(245,245,245)" stroke="none" stroke-width="1"/><rect id="ewet47xn29t48" width="47.780000" height="29.470000" rx="0" ry="0" transform="matrix(0.99999000000000 -0.00453800000000 0.00453800000000 0.99999000000000 47.81243402000001 268.99998166000000)" fill="rgb(235,235,235)" stroke="none" stroke-width="1"/><path id="ewet47xn29t49" d="M66.140000,296.060000C65.928174,296.060754,65.721579,295.994224,65.550000,295.870000L56.840000,289.500000C56.584245,289.311512,56.433275,289.012708,56.433275,288.695000C56.433275,288.377292,56.584245,288.078488,56.840000,287.890000L65.500000,281.440000C65.927463,281.240072,66.436513,281.366190,66.721199,281.742554C67.005885,282.118919,66.988711,282.643078,66.680000,283L66.680000,283L59.110000,288.640000L66.730000,294.200000C67.081702,294.454622,67.228907,294.907106,67.094342,295.319924C66.959777,295.732742,66.574194,296.011554,66.140000,296.010000Z" transform="matrix(1 0 0 1 0 -5)" fill="rgb(250,250,250)" stroke="none" stroke-width="1"/><path id="ewet47xn29t50" d="M77.460000,296C77.029570,296,76.647431,295.724570,76.511317,295.316228C76.375203,294.907886,76.515656,294.458258,76.860000,294.200000L76.860000,294.200000L84.430000,288.560000L76.810000,283C76.365411,282.671391,76.271391,282.044589,76.600000,281.600000C76.928609,281.155411,77.555411,281.061391,78,281.390000L78,281.390000L86.710000,287.750000C86.965755,287.938488,87.116725,288.237292,87.116725,288.555000C87.116725,288.872708,86.965755,289.171512,86.710000,289.360000L78.050000,295.810000C77.878421,295.934224,77.671826,296.000754,77.460000,296Z" transform="matrix(1 0 0 1 0 -5)" fill="rgb(250,250,250)" stroke="none" stroke-width="1"/><path id="ewet47xn29t51" d="M69.520000,296C69.196692,295.998714,68.893954,295.841197,68.707351,295.577173C68.520747,295.313149,68.473305,294.975198,68.580000,294.670000L73.070000,281.830000C73.252254,281.308091,73.823091,281.032746,74.345000,281.215000C74.866909,281.397254,75.142254,281.968091,74.960000,282.490000L70.470000,295.330000C70.329000,295.733362,69.947288,296.002569,69.520000,296Z" transform="matrix(1 0 0 1 0 -5)" fill="rgb(250,250,250)" stroke="none" stroke-width="1"/></g><g id="ewet47xn29t52" opacity="0"><ellipse id="ewet47xn29t53" rx="193.890000" ry="11.320000" transform="matrix(1 0 0 1 250 361.24000000000001)" fill="rgb(245,245,245)" stroke="none" stroke-width="1"/></g><g id="ewet47xn29t54_to" transform="translate(338.555008,402.300002)"><g id="ewet47xn29t54" transform="translate(-338.555008,-332.299988)"><polygon id="ewet47xn29t55" points="334.380000,361.240000 341.730000,361.240000 351.730000,306 344.380000,306 334.380000,361.240000" fill="rgb(38,50,56)" stroke="none" stroke-width="1"/><polygon id="ewet47xn29t56" style="isolation:isolate" points="334.380000,361.240000 341.730000,361.240000 351.730000,306 344.380000,306 334.380000,361.240000" opacity="0.2" fill="rgb(255,255,255)" stroke="none" stroke-width="1"/><polygon id="ewet47xn29t57" style="isolation:isolate" points="334.380000,361.240000 339.730000,361.240000 349.730000,306 344.380000,306 334.380000,361.240000" opacity="0.2" fill="rgb(255,255,255)" stroke="none" stroke-width="1"/><path id="ewet47xn29t58" d="M313.690000,327.430000L343.080000,327.430000C343.507001,327.432660,343.917569,327.265582,344.221380,326.965522C344.525191,326.665462,344.697356,326.257001,344.700000,325.830000C344.702644,325.402999,344.700000,325.830000,344.700000,325.830000L344.700000,325.830000C344.702660,325.402999,344.535582,324.992431,344.235522,324.688620C343.935462,324.384809,343.527001,324.212644,343.100000,324.210000L313.690000,324.210000C313.262999,324.207340,312.852431,324.374418,312.548620,324.674478C312.244809,324.974538,312.072644,325.382999,312.070000,325.810000C312.067356,326.237001,312.070000,325.810000,312.070000,325.810000L312.070000,325.810000C312.067340,326.237001,312.234418,326.647569,312.534478,326.951380C312.834538,327.255191,313.242999,327.427356,313.670000,327.430000Z" transform="matrix(1 0 0 1 0 -5)" fill="rgb(38,50,56)" stroke="none" stroke-width="1"/><path id="ewet47xn29t59" d="M310.420000,345.930000L339.820000,345.930000C340.716316,345.924501,341.440017,345.196333,341.440000,344.300000L341.440000,344.300000C341.434542,343.407569,340.712431,342.685458,339.820000,342.680000L310.420000,342.680000C309.527569,342.685458,308.805458,343.407569,308.800000,344.300000L308.800000,344.300000C308.799983,345.196333,309.523684,345.924501,310.420000,345.930000Z" transform="matrix(1 0 0 1 0 -5)" fill="rgb(38,50,56)" stroke="none" stroke-width="1"/><polygon id="ewet47xn29t60" points="304.380000,361.240000 311.730000,361.240000 321.730000,306 314.380000,306 304.380000,361.240000" fill="rgb(38,50,56)" stroke="none" stroke-width="1"/><polygon id="ewet47xn29t61" style="isolation:isolate" points="304.380000,361.240000 311.730000,361.240000 321.730000,306 314.380000,306 304.380000,361.240000" opacity="0.2" fill="rgb(255,255,255)" stroke="none" stroke-width="1"/><polygon id="ewet47xn29t62" style="isolation:isolate" points="304.380000,361.240000 309.730000,361.240000 319.730000,306 314.380000,306 304.380000,361.240000" opacity="0.2" fill="rgb(255,255,255)" stroke="none" stroke-width="1"/><polygon id="ewet47xn29t63" points="372.730000,361.240000 365.380000,361.240000 355.380000,306 362.730000,306 372.730000,361.240000" fill="rgb(38,50,56)" stroke="none" stroke-width="1"/><polygon id="ewet47xn29t64" style="isolation:isolate" points="372.730000,361.240000 365.380000,361.240000 355.380000,306 362.730000,306 372.730000,361.240000" opacity="0.4" fill="rgb(255,255,255)" stroke="none" stroke-width="1"/><polygon id="ewet47xn29t65" style="isolation:isolate" points="370.730000,361.240000 365.380000,361.240000 355.380000,306 360.730000,306 370.730000,361.240000" opacity="0.2" fill="rgb(255,255,255)" stroke="none" stroke-width="1"/><path id="ewet47xn29t66" d="M359.820000,327.430000L330.420000,327.430000C329.990349,327.430000,329.578296,327.259322,329.274487,326.955513C328.970678,326.651704,328.800000,326.239651,328.800000,325.810000L328.800000,325.810000C328.800000,325.380349,328.970678,324.968296,329.274487,324.664487C329.578296,324.360678,329.990349,324.190000,330.420000,324.190000L359.820000,324.190000C360.249651,324.190000,360.661704,324.360678,360.965513,324.664487C361.269322,324.968296,361.440000,325.380349,361.440000,325.810000L361.440000,325.810000C361.440000,326.239651,361.269322,326.651704,360.965513,326.955513C360.661704,327.259322,360.249651,327.430000,359.820000,327.430000Z" transform="matrix(1 0 0 1 0 -5)" fill="rgb(38,50,56)" stroke="none" stroke-width="1"/><path id="ewet47xn29t67" d="M363.080000,345.930000L333.690000,345.930000C333.260349,345.930000,332.848296,345.759322,332.544487,345.455513C332.240678,345.151704,332.070000,344.739651,332.070000,344.310000L332.070000,344.310000C332.070000,343.880349,332.240678,343.468296,332.544487,343.164487C332.848296,342.860678,333.260349,342.690000,333.690000,342.690000L363.080000,342.690000C363.509651,342.690000,363.921704,342.860678,364.225513,343.164487C364.529322,343.468296,364.700000,343.880349,364.700000,344.310000L364.700000,344.310000C364.702660,344.739653,364.534528,345.152765,364.232593,345.458451C363.930658,345.764137,363.519653,345.937356,363.090000,345.940000Z" transform="matrix(1 0 0 1 0 -5)" fill="rgb(38,50,56)" stroke="none" stroke-width="1"/><path id="ewet47xn29t68" style="isolation:isolate" d="M359.820000,327.430000L330.420000,327.430000C329.990349,327.430000,329.578296,327.259322,329.274487,326.955513C328.970678,326.651704,328.800000,326.239651,328.800000,325.810000L328.800000,325.810000C328.800000,325.380349,328.970678,324.968296,329.274487,324.664487C329.578296,324.360678,329.990349,324.190000,330.420000,324.190000L359.820000,324.190000C360.249651,324.190000,360.661704,324.360678,360.965513,324.664487C361.269322,324.968296,361.440000,325.380349,361.440000,325.810000L361.440000,325.810000C361.440000,326.239651,361.269322,326.651704,360.965513,326.955513C360.661704,327.259322,360.249651,327.430000,359.820000,327.430000Z" transform="matrix(1 0 0 1 0 -5)" opacity="0.2" fill="rgb(255,255,255)" stroke="none" stroke-width="1"/><path id="ewet47xn29t69" style="isolation:isolate" d="M363.080000,345.930000L333.690000,345.930000C333.260349,345.930000,332.848296,345.759322,332.544487,345.455513C332.240678,345.151704,332.070000,344.739651,332.070000,344.310000L332.070000,344.310000C332.070000,343.880349,332.240678,343.468296,332.544487,343.164487C332.848296,342.860678,333.260349,342.690000,333.690000,342.690000L363.080000,342.690000C363.509651,342.690000,363.921704,342.860678,364.225513,343.164487C364.529322,343.468296,364.700000,343.880349,364.700000,344.310000L364.700000,344.310000C364.702660,344.739653,364.534528,345.152765,364.232593,345.458451C363.930658,345.764137,363.519653,345.937356,363.090000,345.940000Z" transform="matrix(1 0 0 1 0 -5)" opacity="0.2" fill="rgb(255,255,255)" stroke="none" stroke-width="1"/><polygon id="ewet47xn29t70" points="342.730000,361.240000 335.380000,361.240000 325.380000,306 332.730000,306 342.730000,361.240000" fill="rgb(38,50,56)" stroke="none" stroke-width="1"/><polygon id="ewet47xn29t71" style="isolation:isolate" points="342.730000,361.240000 335.380000,361.240000 325.380000,306 332.730000,306 342.730000,361.240000" opacity="0.4" fill="rgb(255,255,255)" stroke="none" stroke-width="1"/><polygon id="ewet47xn29t72" style="isolation:isolate" points="340.730000,361.240000 335.380000,361.240000 325.380000,306 330.730000,306 340.730000,361.240000" opacity="0.2" fill="rgb(255,255,255)" stroke="none" stroke-width="1"/><rect id="ewet47xn29t73" width="55.470000" height="5.270000" rx="1.190000" ry="1.190000" transform="matrix(1 0 0 1 311.31000000000000 303.36000000000001)" fill="rgb(38,50,56)" stroke="none" stroke-width="1"/><rect id="ewet47xn29t74" style="isolation:isolate" width="22.560000" height="5.270000" rx="1.190000" ry="1.190000" transform="matrix(1 0 0 1 311.31000000000000 303.36000000000001)" opacity="0.2" fill="rgb(255,255,255)" stroke="none" stroke-width="1"/></g></g><g id="ewet47xn29t75_to" transform="translate(160.775002,398.685007)"><g id="ewet47xn29t75" transform="translate(-160.775002,-338.685013)"><rect id="ewet47xn29t76" width="67.150000" height="43.670000" rx="0" ry="0" transform="matrix(1 0 0 1 127.20000000000000 316.85000000000002)" fill="rgb(37,99,235)" stroke="none" stroke-width="1"/><rect id="ewet47xn29t77" style="isolation:isolate" width="67.150000" height="43.670000" rx="0" ry="0" transform="matrix(1 0 0 1 127.20000000000000 316.85000000000002)" opacity="0.6" fill="rgb(255,255,255)" stroke="none" stroke-width="1"/><rect id="ewet47xn29t78" width="62.240000" height="33.300000" rx="0" ry="0" transform="matrix(1 0 0 1 129.66000000000000 325.04000000000002)" fill="rgb(37,99,235)" stroke="none" stroke-width="1"/><rect id="ewet47xn29t79" width="46.040000" height="1.430000" rx="0" ry="0" transform="matrix(1 0 0 1 134.72999999999999 330.00999999999999)" fill="rgb(255,255,255)" stroke="none" stroke-width="1"/><rect id="ewet47xn29t80" width="22.090000" height="1.430000" rx="0" ry="0" transform="matrix(1 0 0 1 134.72999999999999 334.39999999999998)" fill="rgb(255,255,255)" stroke="none" stroke-width="1"/><rect id="ewet47xn29t81" width="27.820000" height="1.430000" rx="0" ry="0" transform="matrix(1 0 0 1 134.72999999999999 338.79000000000002)" fill="rgb(255,255,255)" stroke="none" stroke-width="1"/><rect id="ewet47xn29t82" width="9.800000" height="1.430000" rx="0" ry="0" transform="matrix(1 0 0 1 134.72999999999999 343.17000000000002)" fill="rgb(255,255,255)" stroke="none" stroke-width="1"/><rect id="ewet47xn29t83" width="6.350000" height="1.430000" rx="0" ry="0" transform="matrix(1 0 0 1 134.72999999999999 347.56000000000000)" fill="rgb(255,255,255)" stroke="none" stroke-width="1"/></g></g><g id="ewet47xn29t84_to" transform="translate(250.000015,505.309990)"><g id="ewet47xn29t84_ts" transform="scale(0,0)"><g id="ewet47xn29t84" transform="translate(-250.000015,-235.309990)"><polygon id="ewet47xn29t85" points="277.330000,361.240000 222.670000,361.240000 231.920000,288.570000 268.080000,288.570000 277.330000,361.240000" fill="rgb(37,99,235)" stroke="none" stroke-width="1"/><polygon id="ewet47xn29t86" style="isolation:isolate" points="277.330000,361.240000 222.670000,361.240000 229,311.520000 231.930000,288.570000 268.070000,288.570000 272.390000,322.430000 277.330000,361.240000" opacity="0.6" fill="rgb(255,255,255)" stroke="none" stroke-width="1"/><polygon id="ewet47xn29t87" style="isolation:isolate" points="272.390000,322.430000 229,311.520000 231.930000,288.570000 268.070000,288.570000 272.390000,322.430000" opacity="0.1" fill="rgb(0,0,0)" stroke="none" stroke-width="1"/><path id="ewet47xn29t88" d="M378.870000,114.380000L121.130000,114.380000C119.382223,114.380000,117.706031,115.074302,116.470166,116.310166C115.234302,117.546031,114.540000,119.222223,114.540000,120.970000L114.540000,120.970000L114.540000,295.460000C114.540000,299.099557,117.490443,302.050000,121.130000,302.050000L378.870000,302.050000C382.509557,302.050000,385.460000,299.099557,385.460000,295.460000L385.460000,121C385.467975,119.252218,384.781310,117.572854,383.551067,116.331360C382.320824,115.089865,380.647782,114.387938,378.900000,114.380000Z" transform="matrix(1 0 0 1 0 -5)" fill="rgb(37,99,235)" stroke="none" stroke-width="1"/><path id="ewet47xn29t89" style="isolation:isolate" d="M378.870000,114.380000L121.130000,114.380000C119.382223,114.380000,117.706031,115.074302,116.470166,116.310166C115.234302,117.546031,114.540000,119.222223,114.540000,120.970000L114.540000,120.970000L114.540000,295.460000C114.540000,299.099557,117.490443,302.050000,121.130000,302.050000L378.870000,302.050000C382.509557,302.050000,385.460000,299.099557,385.460000,295.460000L385.460000,121C385.467975,119.252218,384.781310,117.572854,383.551067,116.331360C382.320824,115.089865,380.647782,114.387938,378.900000,114.380000Z" transform="matrix(1 0 0 1 0 -5)" opacity="0.7" fill="rgb(255,255,255)" stroke="none" stroke-width="1"/><rect id="ewet47xn29t90" width="253.570000" height="168.250000" rx="0" ry="0" transform="matrix(1 0 0 1 123.22000000000000 115.84000000000000)" fill="rgb(37,99,235)" stroke="none" stroke-width="1"/><rect id="ewet47xn29t91" width="93.890000" height="5.370000" rx="1.040000" ry="1.040000" transform="matrix(1 0 0 1 203.05000000000001 355.77999999999997)" fill="rgb(37,99,235)" stroke="none" stroke-width="1"/><rect id="ewet47xn29t92" style="isolation:isolate" width="93.890000" height="5.370000" rx="1.040000" ry="1.040000" transform="matrix(1 0 0 1 203.05000000000001 355.77999999999997)" opacity="0.7" fill="rgb(255,255,255)" stroke="none" stroke-width="1"/><rect id="ewet47xn29t93" style="isolation:isolate" width="253.570000" height="25.080000" rx="0" ry="0" transform="matrix(1 0 0 1 123.22000000000000 116)" opacity="0.2" fill="rgb(0,0,0)" stroke="none" stroke-width="1"/><rect id="ewet47xn29t94" style="isolation:isolate" width="108.660000" height="142.710000" rx="0" ry="0" transform="matrix(1 0 0 1 123.22000000000000 141.38000000000000)" opacity="0.4" fill="rgb(255,255,255)" stroke="none" stroke-width="1"/><polyline id="ewet47xn29t95" points="337.760000,177.780000 337.760000,180.280000 335.260000,180.280000" fill="none" stroke="rgb(255,255,255)" stroke-width="1" stroke-miterlimit="10"/><line id="ewet47xn29t96" x1="329.980000" y1="180.280000" x2="248.080000" y2="180.280000" fill="none" stroke="rgb(255,255,255)" stroke-width="1" stroke-miterlimit="10" stroke-dasharray="5.280000,5.280000"/><polyline id="ewet47xn29t97" points="245.440000,180.280000 242.940000,180.280000 242.940000,177.780000" fill="none" stroke="rgb(255,255,255)" stroke-width="1" stroke-miterlimit="10"/><line id="ewet47xn29t98" x1="242.940000" y1="173.250000" x2="242.940000" y2="130.220000" fill="none" stroke="rgb(255,255,255)" stroke-width="1" stroke-miterlimit="10" stroke-dasharray="4.530000,4.530000"/><polyline id="ewet47xn29t99" points="242.940000,127.960000 242.940000,125.460000 245.440000,125.460000" fill="none" stroke="rgb(255,255,255)" stroke-width="1" stroke-miterlimit="10"/><line id="ewet47xn29t100" x1="250.720000" y1="125.460000" x2="332.620000" y2="125.460000" fill="none" stroke="rgb(255,255,255)" stroke-width="1" stroke-miterlimit="10" stroke-dasharray="5.280000,5.280000"/><polyline id="ewet47xn29t101" points="335.260000,125.460000 337.760000,125.460000 337.760000,127.960000" fill="none" stroke="rgb(255,255,255)" stroke-width="1" stroke-miterlimit="10"/><line id="ewet47xn29t102" x1="337.760000" y1="132.490000" x2="337.760000" y2="175.520000" fill="none" stroke="rgb(255,255,255)" stroke-width="1" stroke-miterlimit="10" stroke-dasharray="4.530000,4.530000"/><rect id="ewet47xn29t103" width="3.170000" height="3.170000" rx="0" ry="0" transform="matrix(1 0 0 1 336.18000000000001 123.87000000000000)" fill="rgb(37,99,235)" stroke="rgb(255,255,255)" stroke-width="1" stroke-miterlimit="10"/><rect id="ewet47xn29t104" width="3.170000" height="3.170000" rx="0" ry="0" transform="matrix(1 0 0 1 336.18000000000001 178.69999999999999)" fill="rgb(37,99,235)" stroke="rgb(255,255,255)" stroke-width="1" stroke-miterlimit="10"/><rect id="ewet47xn29t105" width="3.170000" height="3.170000" rx="0" ry="0" transform="matrix(1 0 0 1 241.34999999999999 123.87000000000000)" fill="rgb(37,99,235)" stroke="rgb(255,255,255)" stroke-width="1" stroke-miterlimit="10"/><rect id="ewet47xn29t106" width="3.170000" height="3.170000" rx="0" ry="0" transform="matrix(1 0 0 1 241.34999999999999 178.69999999999999)" fill="rgb(37,99,235)" stroke="rgb(255,255,255)" stroke-width="1" stroke-miterlimit="10"/><rect id="ewet47xn29t107" width="3.170000" height="3.170000" rx="0" ry="0" transform="matrix(1 0 0 1 288.76999999999998 123.87000000000000)" fill="rgb(37,99,235)" stroke="rgb(255,255,255)" stroke-width="1" stroke-miterlimit="10"/><rect id="ewet47xn29t108" width="3.170000" height="3.170000" rx="0" ry="0" transform="matrix(1 0 0 1 288.76999999999998 178.69999999999999)" fill="rgb(37,99,235)" stroke="rgb(255,255,255)" stroke-width="1" stroke-miterlimit="10"/><rect id="ewet47xn29t109" width="3.170000" height="3.170000" rx="0" ry="0" transform="matrix(1 0 0 1 336.18000000000001 151.28000000000000)" fill="rgb(37,99,235)" stroke="rgb(255,255,255)" stroke-width="1" stroke-miterlimit="10"/><rect id="ewet47xn29t110" width="3.170000" height="3.170000" rx="0" ry="0" transform="matrix(1 0 0 1 241.34999999999999 151.28000000000000)" fill="rgb(37,99,235)" stroke="rgb(255,255,255)" stroke-width="1" stroke-miterlimit="10"/><rect id="ewet47xn29t111" style="isolation:isolate" width="26.990000" height="9.990000" rx="1.890000" ry="1.890000" transform="matrix(1 0 0 1 304.05000000000001 143.87000000000000)" opacity="0.7" fill="rgb(255,255,255)" stroke="none" stroke-width="1"/><rect id="ewet47xn29t112" style="isolation:isolate" width="26.990000" height="9.990000" rx="1.890000" ry="1.890000" transform="matrix(1 0 0 1 264.05000000000001 143.87000000000000)" opacity="0.7" fill="rgb(255,255,255)" stroke="none" stroke-width="1"/><rect id="ewet47xn29t113" style="isolation:isolate" width="26.990000" height="9.990000" rx="1.890000" ry="1.890000" transform="matrix(1 0 0 1 212.56000000000000 265.45999999999998)" opacity="0.7" fill="rgb(255,255,255)" stroke="none" stroke-width="1"/><line id="ewet47xn29t114" x1="360.050000" y1="124.920000" x2="368.490000" y2="124.920000" fill="none" stroke="rgb(255,255,255)" stroke-width="1.500000" stroke-linecap="round" stroke-linejoin="round"/><line id="ewet47xn29t115" x1="360.050000" y1="128.920000" x2="368.490000" y2="128.920000" fill="none" stroke="rgb(255,255,255)" stroke-width="1.500000" stroke-linecap="round" stroke-linejoin="round"/><line id="ewet47xn29t116" x1="360.050000" y1="132.920000" x2="368.490000" y2="132.920000" fill="none" stroke="rgb(255,255,255)" stroke-width="1.500000" stroke-linecap="round" stroke-linejoin="round"/><rect id="ewet47xn29t117" style="isolation:isolate" width="85.050000" height="85.050000" rx="0" ry="0" transform="matrix(1 0 0 1 140.41000000000000 163.50000000000000)" opacity="0.5" fill="rgb(255,255,255)" stroke="none" stroke-width="1"/><line id="ewet47xn29t118" x1="176.010000" y1="170.450000" x2="176.010000" y2="243.820000" fill="none" stroke="rgb(37,99,235)" stroke-width="1" stroke-miterlimit="10"/><path id="ewet47xn29t119" d="M212.690000,248.820000L212.690000,248.820000C202.959207,248.820000,193.626962,244.954458,186.746252,238.073748C179.865542,231.193038,176,221.860793,176,212.130000L176,212.130000C176,202.401860,179.864489,193.072158,186.743323,186.193324C193.622157,179.314489,202.951858,175.450000,212.680000,175.450000L212.680000,175.450000" transform="matrix(1 0 0 1 0 -5)" fill="none" stroke="rgb(37,99,235)" stroke-width="1" stroke-miterlimit="10"/><rect id="ewet47xn29t120" width="3.170000" height="3.170000" rx="0" ry="0" transform="matrix(1 0 0 1 211.11000000000001 168.87000000000000)" fill="rgb(255,255,255)" stroke="rgb(37,99,235)" stroke-width="1" stroke-miterlimit="10"/><rect id="ewet47xn29t121" width="3.170000" height="3.170000" rx="0" ry="0" transform="matrix(1 0 0 1 211.11000000000001 242.22999999999999)" fill="rgb(255,255,255)" stroke="rgb(37,99,235)" stroke-width="1" stroke-miterlimit="10"/><rect id="ewet47xn29t122" width="3.170000" height="3.170000" rx="0" ry="0" transform="matrix(1 0 0 1 174.43000000000001 205.55000000000001)" fill="rgb(255,255,255)" stroke="rgb(37,99,235)" stroke-width="1" stroke-miterlimit="10"/><path id="ewet47xn29t123" d="M176.830000,175.450000C176.830000,175.781659,176.630213,176.080661,176.323800,176.207581C176.017387,176.334502,175.664691,176.264346,175.430172,176.029828C175.195654,175.795309,175.125498,175.442613,175.252419,175.136200C175.379339,174.829787,175.678341,174.630000,176.010000,174.630000C176.460619,174.635397,176.824603,174.999381,176.830000,175.450000Z" transform="matrix(1 0 0 1 0 -5)" fill="rgb(255,255,255)" stroke="rgb(37,99,235)" stroke-width="1" stroke-miterlimit="10"/><path id="ewet47xn29t124" d="M176.830000,248.820000C176.829966,249.271564,176.464853,249.638119,176.013293,249.639932C175.561732,249.641746,175.193687,249.278135,175.190027,248.826585C175.186367,248.375036,175.548469,248.005507,176,248C176.219205,247.997327,176.430353,248.082538,176.586303,248.236608C176.742252,248.390679,176.830016,248.600779,176.830000,248.820000Z" transform="matrix(1 0 0 1 0 -5)" fill="rgb(255,255,255)" stroke="rgb(37,99,235)" stroke-width="1" stroke-miterlimit="10"/><path id="ewet47xn29t125" style="isolation:isolate" d="M316.930000,271.670000L291.180000,271.670000C287.071001,271.670000,283.740000,268.338999,283.740000,264.230000L283.740000,264.230000C283.740000,260.121001,287.071001,256.790000,291.180000,256.790000L316.930000,256.790000C321.038999,256.790000,324.370000,260.121001,324.370000,264.230000L324.370000,264.230000C324.370000,268.338999,321.038999,271.670000,316.930000,271.670000Z" transform="matrix(1 0 0 1 0 -5)" opacity="0.7" fill="rgb(255,255,255)" stroke="none" stroke-width="1"/><path id="ewet47xn29t126" style="isolation:isolate" d="M339.550000,208.220000L260,208.220000C259.099776,208.220000,258.370000,207.490224,258.370000,206.590000L258.370000,206.590000C258.386408,205.703131,259.112997,204.994373,260,205L339.540000,205C339.969653,204.997340,340.382765,205.165472,340.688451,205.467407C340.994137,205.769342,341.167356,206.180347,341.170000,206.610000L341.170000,206.610000C341.159113,207.498523,340.438573,208.214615,339.550000,208.220000Z" transform="matrix(1 0 0 1 0 -5)" opacity="0.7" fill="rgb(255,255,255)" stroke="none" stroke-width="1"/><path id="ewet47xn29t127" style="isolation:isolate" d="M339.550000,220.090000L260,220.090000C259.570347,220.092660,259.157235,219.924528,258.851549,219.622593C258.545863,219.320658,258.372644,218.909653,258.370000,218.480000L258.370000,218.480000C258.370000,217.579776,259.099776,216.850000,260,216.850000L339.540000,216.850000C340.440224,216.850000,341.170000,217.579776,341.170000,218.480000L341.170000,218.480000C341.170000,218.909651,340.999322,219.321704,340.695513,219.625513C340.391704,219.929322,339.979651,220.100000,339.550000,220.100000Z" transform="matrix(1 0 0 1 0 -5)" opacity="0.7" fill="rgb(255,255,255)" stroke="none" stroke-width="1"/><path id="ewet47xn29t128" style="isolation:isolate" d="M339.550000,232L290,232C289.103667,232.000017,288.375499,231.276316,288.370000,230.380000L288.370000,230.380000C288.370000,229.479776,289.099776,228.750000,290,228.750000L339.540000,228.750000C340.440224,228.750000,341.170000,229.479776,341.170000,230.380000L341.170000,230.380000C341.164542,231.272431,340.442431,231.994542,339.550000,232Z" transform="matrix(1 0 0 1 0 -5)" opacity="0.7" fill="rgb(255,255,255)" stroke="none" stroke-width="1"/><rect id="ewet47xn29t129" style="isolation:isolate" width="5.620000" height="5.620000" rx="0" ry="0" transform="matrix(1 0 0 1 131.22999999999999 122.95000000000000)" opacity="0.4" fill="rgb(0,0,0)" stroke="none" stroke-width="1"/><rect id="ewet47xn29t130" style="isolation:isolate" width="5.620000" height="5.620000" rx="1.440000" ry="1.440000" transform="matrix(1 0 0 1 142.15000000000001 122.95000000000000)" opacity="0.4" fill="rgb(0,0,0)" stroke="none" stroke-width="1"/><rect id="ewet47xn29t131" style="isolation:isolate" width="5.620000" height="5.620000" rx="2.570000" ry="2.570000" transform="matrix(1 0 0 1 153.08000000000001 122.95000000000000)" opacity="0.4" fill="rgb(0,0,0)" stroke="none" stroke-width="1"/><path id="ewet47xn29t132" style="isolation:isolate" d="M148.450000,266.500000L148.450000,264.310000L147.330000,264.210000C147.170108,263.499022,146.885728,262.821927,146.490000,262.210000L147.210000,261.340000L145.660000,259.790000L144.790000,260.510000C144.178073,260.114272,143.500978,259.829892,142.790000,259.670000L142.690000,258.550000L140.500000,258.550000L140.390000,259.670000C139.679277,259.830690,139.002318,260.115013,138.390000,260.510000L137.520000,259.790000L136,261.340000L136.720000,262.210000C136.316288,262.817679,136.031269,263.496295,135.880000,264.210000L134.750000,264.310000L134.750000,266.500000L135.880000,266.610000C136.031959,267.323489,136.316925,268.001979,136.720000,268.610000L136,269.490000L137.550000,271.030000L138.420000,270.310000C139.028021,270.713075,139.706511,270.998041,140.420000,271.150000L140.530000,272.280000L142.720000,272.280000L142.820000,271.150000C143.533705,270.998731,144.212321,270.713712,144.820000,270.310000L145.690000,271.030000L147.240000,269.490000L146.520000,268.610000C146.919189,267.999906,147.203840,267.322166,147.360000,266.610000ZM141.560000,268.370000C139.903146,268.370000,138.560000,267.026854,138.560000,265.370000C138.560000,263.713146,139.903146,262.370000,141.560000,262.370000C143.216854,262.370000,144.560000,263.713146,144.560000,265.370000C144.560000,267.026854,143.216854,268.370000,141.560000,268.370000Z" transform="matrix(1 0 0 1 0 -5)" opacity="0.9" fill="rgb(255,255,255)" stroke="none" stroke-width="1"/><path id="ewet47xn29t133" style="isolation:isolate" d="M157.330000,272.680000L157.330000,271L156.450000,270.910000C156.330600,270.346738,156.106739,269.810829,155.790000,269.330000L156.350000,268.640000L155.140000,267.430000L154.460000,268C153.975590,267.683161,153.436390,267.459342,152.870000,267.340000L152.790000,266.450000L151.070000,266.450000L150.990000,267.340000C150.423610,267.459342,149.884410,267.683161,149.400000,268L148.720000,267.430000L147.500000,268.640000L148.070000,269.330000C147.753261,269.810829,147.529400,270.346738,147.410000,270.910000L146.530000,271L146.530000,272.710000L147.410000,272.800000C147.529400,273.363262,147.753261,273.899171,148.070000,274.380000L147.500000,275.070000L148.720000,276.280000L149.400000,275.710000C149.884410,276.026839,150.423610,276.250658,150.990000,276.370000L151.070000,277.250000L152.790000,277.250000L152.870000,276.370000C153.436390,276.250658,153.975590,276.026839,154.460000,275.710000L155.140000,276.280000L156.350000,275.070000L155.790000,274.380000C156.106739,273.899171,156.330600,273.363262,156.450000,272.800000ZM151.930000,274.150000C150.643194,274.155511,149.595562,273.116820,149.590043,271.830014C149.584524,270.543208,150.623208,269.495570,151.910014,269.490043C153.196821,269.484516,154.244465,270.523194,154.250000,271.810000L154.250000,271.810000C154.252658,272.425304,154.010775,273.016462,153.577565,273.453423C153.144355,273.890384,152.555304,274.137354,151.940000,274.140000L151.940000,274.140000Z" transform="matrix(1 0 0 1 0 -5)" opacity="0.6" fill="rgb(255,255,255)" stroke="none" stroke-width="1"/><path id="ewet47xn29t134" style="isolation:isolate" d="M148.450000,277.550000L148.450000,276.110000L147.710000,276.040000C147.610765,275.566385,147.424257,275.115373,147.160000,274.710000L147.640000,274.140000L146.640000,273.140000L146.060000,273.610000C145.654627,273.345743,145.203615,273.159235,144.730000,273.060000L144.660000,272.320000L143.200000,272.320000L143.130000,273.060000C142.656385,273.159235,142.205373,273.345743,141.800000,273.610000L141.220000,273.140000L140.220000,274.140000L140.700000,274.710000C140.435743,275.115373,140.249235,275.566385,140.150000,276.040000L139.400000,276.110000L139.400000,277.550000L140.150000,277.620000C140.247364,278.097301,140.433965,278.551929,140.700000,278.960000L140.220000,279.530000L141.220000,280.530000L141.800000,280.050000C142.202653,280.321464,142.654440,280.511691,143.130000,280.610000L143.200000,281.350000L144.640000,281.350000L144.710000,280.610000C145.175249,280.491579,145.613263,280.284456,146,280L146.580000,280.480000L147.580000,279.480000L147.100000,278.910000C147.366035,278.501929,147.552636,278.047301,147.650000,277.570000ZM143.920000,278.780000C142.820395,278.766254,141.938166,277.867326,141.945039,276.767656C141.951912,275.667987,142.845309,274.780156,143.945000,274.780156C145.044691,274.780156,145.938088,275.667987,145.944961,276.767656C145.951834,277.867326,145.069605,278.766254,143.970000,278.780000Z" transform="matrix(1 0 0 1 0 -5)" opacity="0.4" fill="rgb(255,255,255)" stroke="none" stroke-width="1"/><polygon id="ewet47xn29t135" points="337.180000,124.890000 341.420000,136.230000 348.510000,129.130000 337.180000,124.890000" fill="rgb(37,99,235)" stroke="none" stroke-width="1"/><rect id="ewet47xn29t136" width="2.240000" height="4.970000" rx="0" ry="0" transform="matrix(0.70710700000000 -0.70710700000000 0.70710700000000 0.70710700000000 342.41960835000015 131.72212445000000)" fill="rgb(37,99,235)" stroke="none" stroke-width="1"/><polygon id="ewet47xn29t137" style="isolation:isolate" points="348.510000,129.130000 337.180000,124.890000 341.420000,136.230000 344.180000,133.470000 345.930000,135.230000 347.510000,133.650000 345.760000,131.890000 348.510000,129.130000" opacity="0.4" fill="rgb(255,255,255)" stroke="none" stroke-width="1"/><path id="ewet47xn29t138" d="M163.460000,170.420000L174.130000,174.420000L168.540000,168.830000C168.114820,169.074526,167.578683,169.004951,167.230000,168.660000C166.799218,168.229218,166.799218,167.530782,167.230000,167.100000C167.660782,166.669218,168.359218,166.669218,168.790000,167.100000C169.134951,167.448683,169.204526,167.984820,168.960000,168.410000L174.550000,174L170.550000,163.330000L167.010000,164.110000L166.880000,162.840000L166.210000,162.170000L162.290000,166.090000L162.960000,166.760000L164.240000,166.890000Z" transform="matrix(1 0 0 1 0 -5)" fill="rgb(38,50,56)" stroke="none" stroke-width="1"/><path id="ewet47xn29t139" style="isolation:isolate" d="M163.460000,170.420000L174.130000,174.420000L168.540000,168.830000C168.114820,169.074526,167.578683,169.004951,167.230000,168.660000C166.799218,168.229218,166.799218,167.530782,167.230000,167.100000C167.660782,166.669218,168.359218,166.669218,168.790000,167.100000C169.134951,167.448683,169.204526,167.984820,168.960000,168.410000L174.550000,174L170.550000,163.330000L167.010000,164.110000L166.880000,162.840000L166.210000,162.170000L162.290000,166.090000L162.960000,166.760000L164.240000,166.890000Z" transform="matrix(1 0 0 1 0 -5)" opacity="0.2" fill="rgb(255,255,255)" stroke="none" stroke-width="1"/><g id="ewet47xn29t140" opacity="0.1"><polygon id="ewet47xn29t141" points="160.300000,115.840000 122.720000,256.260000 122.720000,115.840000 160.300000,115.840000" fill="rgb(255,255,255)" stroke="none" stroke-width="1"/><polygon id="ewet47xn29t142" points="202.710000,115.840000 157.680000,284.090000 126.660000,284.090000 171.680000,115.840000 202.710000,115.840000" fill="rgb(255,255,255)" stroke="none" stroke-width="1"/><polygon id="ewet47xn29t143" points="247.810000,115.840000 202.780000,284.090000 188.750000,284.090000 233.780000,115.840000 247.810000,115.840000" fill="rgb(255,255,255)" stroke="none" stroke-width="1"/><polygon id="ewet47xn29t144" points="289.340000,115.840000 244.310000,284.090000 239.290000,284.090000 284.320000,115.840000 289.340000,115.840000" fill="rgb(255,255,255)" stroke="none" stroke-width="1"/></g></g></g></g><g id="ewet47xn29t145_to" transform="translate(568.998367,235.216187)"><g id="ewet47xn29t145" transform="translate(-408.998367,-235.216187)"><path id="ewet47xn29t146" d="M441.900000,158C445.450000,162.090000,463.510000,196.880000,460.020000,205C456.530000,213.120000,427.590000,203.760000,427.590000,203.760000L429.320000,192.290000C429.320000,192.290000,440.560000,192.690000,441.640000,191.620000C442.720000,190.550000,426.430000,174.290000,426.430000,174.290000Z" transform="matrix(1 0 0 1 0 -5)" fill="rgb(38,50,56)" stroke="none" stroke-width="1"/><g id="ewet47xn29t147" opacity="0.2"><path id="ewet47xn29t148" d="M460,205C459.571058,205.939852,458.823703,206.697832,457.890000,207.140000L457.890000,207.140000L457.310000,207.400000L457.230000,207.400000C457.051019,207.475292,456.867291,207.538761,456.680000,207.590000C455.867283,207.850808,455.029308,208.025107,454.180000,208.110000L453.450000,208.180000C453.090000,208.180000,452.730000,208.180000,452.360000,208.240000L451.360000,208.240000C441.660000,208.240000,427.550000,203.690000,427.550000,203.690000L429.280000,192.220000C429.280000,192.220000,440.520000,192.620000,441.600000,191.550000C441.860000,191.290000,441.090000,190.130000,439.780000,188.550000L439.780000,188.550000C436.600000,184.640000,430.230000,178.130000,427.600000,175.470000L426.410000,174.270000L441.900000,158C445.450000,162.050000,463.510000,196.840000,460,205Z" transform="matrix(1 0 0 1 0 -5)" fill="rgb(255,255,255)" stroke="none" stroke-width="1"/></g><path id="ewet47xn29t149" style="isolation:isolate" d="M457.910000,207.110000L457.910000,207.110000L457.330000,207.370000L457.250000,207.370000C457.071019,207.445292,456.887291,207.508761,456.700000,207.560000C455.887283,207.820808,455.049308,207.995107,454.200000,208.080000L453.470000,208.150000C453.110000,208.150000,452.750000,208.150000,452.380000,208.210000L451.380000,208.210000C441.680000,208.210000,427.570000,203.660000,427.570000,203.660000L429.300000,192.190000C429.300000,192.190000,441.960000,193.260000,443.040000,192.190000L443.040000,192.190000C443.240000,191.770000,441.840000,190.350000,439.770000,188.540000L439.770000,188.540000C436.590000,184.630000,430.220000,178.120000,427.590000,175.460000L434.910000,167.640000L440.480000,167.040000C440.480000,167.040000,452.810000,187,457.910000,207.110000Z" transform="matrix(1 0 0 1 0 -5)" opacity="0.2" fill="rgb(0,0,0)" stroke="none" stroke-width="1"/><path id="ewet47xn29t150" d="M405.410000,156.820000C403.410000,158.270000,402.410000,160.330000,403.210000,161.420000L456,234.270000C456.790000,235.360000,459.060000,235.060000,461.060000,233.610000C463.060000,232.160000,464.060000,230.090000,463.260000,229.010000L410.420000,156.150000C409.680000,155.070000,407.420000,155.360000,405.410000,156.820000Z" transform="matrix(1 0 0 1 0 -5)" fill="rgb(38,50,56)" stroke="none" stroke-width="1"/><path id="ewet47xn29t151" style="isolation:isolate" d="M410.470000,156.150000L463.310000,229C464.100000,230.080000,463.110000,232.140000,461.110000,233.600000C459.110000,235.060000,456.840000,235.340000,456.110000,234.260000L403.220000,161.400000C402.807978,160.624889,402.882061,159.681312,403.410000,158.980000C403.679846,158.498333,404.016520,158.057290,404.410000,157.670000C404.716435,157.353464,405.051161,157.065600,405.410000,156.810000C407.420000,155.370000,409.680000,155.070000,410.470000,156.150000Z" transform="matrix(1 0 0 1 0 -5)" opacity="0.7" fill="rgb(255,255,255)" stroke="none" stroke-width="1"/><path id="ewet47xn29t152" style="isolation:isolate" d="M463.310000,229C464.100000,230.080000,463.110000,232.140000,461.110000,233.600000C459.110000,235.060000,456.840000,235.340000,456.110000,234.260000C455.670000,233.660000,456.760000,232.750000,457.400000,231.440000L403.410000,159C403.679846,158.518333,404.016520,158.077290,404.410000,157.690000L457.260000,230.550000C457.570318,230.234560,457.904656,229.943686,458.260000,229.680000C460.260000,228.220000,462.520000,227.920000,463.310000,229Z" transform="matrix(1 0 0 1 0 -5)" opacity="0.3" fill="rgb(0,0,0)" stroke="none" stroke-width="1"/><path id="ewet47xn29t153" d="M398.870000,154.800000C397.180000,156.600000,396.600000,158.800000,397.580000,159.730000L463.280000,221.240000C464.280000,222.160000,466.430000,221.440000,468.120000,219.630000C469.810000,217.820000,470.390000,215.630000,469.410000,214.690000L403.710000,153.180000C402.730000,152.270000,400.560000,153,398.870000,154.800000Z" transform="matrix(1 0 0 1 0 -5)" fill="rgb(37,99,235)" stroke="none" stroke-width="1"/><path id="ewet47xn29t154" style="isolation:isolate" d="M403.710000,153.190000L469.410000,214.700000C470.410000,215.610000,469.810000,217.820000,468.120000,219.630000C466.430000,221.440000,464.260000,222.150000,463.280000,221.240000L397.580000,159.730000C397.033045,159.041991,396.928130,158.101639,397.310000,157.310000C397.489431,156.785819,397.738314,156.288054,398.050000,155.830000C398.297230,155.476090,398.571376,155.141766,398.870000,154.830000C400.560000,153,402.730000,152.270000,403.710000,153.190000Z" transform="matrix(1 0 0 1 0 -5)" opacity="0.7" fill="rgb(255,255,255)" stroke="none" stroke-width="1"/><path id="ewet47xn29t155" style="isolation:isolate" d="M469.410000,214.700000C470.410000,215.610000,469.810000,217.820000,468.120000,219.630000C466.430000,221.440000,464.260000,222.150000,463.280000,221.240000C462.740000,220.730000,463.640000,219.640000,464.020000,218.240000L397.310000,157.330000C397.489431,156.805819,397.738314,156.308054,398.050000,155.850000L463.760000,217.370000C464.001586,217.014621,464.272534,216.680116,464.570000,216.370000C466.260000,214.500000,468.430000,213.780000,469.410000,214.700000Z" transform="matrix(1 0 0 1 0 -5)" opacity="0.3" fill="rgb(0,0,0)" stroke="none" stroke-width="1"/><path id="ewet47xn29t156" d="M414.660000,351.100000L409.660000,351.180000C404.570000,327.270000,400.970000,297.680000,398.730000,275.360000C398.380000,271.860000,398.060000,268.550000,397.730000,265.460000C397.600000,263.990000,397.470000,262.580000,397.350000,261.220000C396.750000,254.510000,396.350000,249.220000,396.090000,245.900000C395.910000,243.500000,395.820000,242.180000,395.820000,242.180000L414,242.180000L413.830000,246.790000L413.230000,262L413.170000,263.740000L412.790000,273.740000L412.160000,290.850000C418.370000,315,414.660000,351.100000,414.660000,351.100000Z" transform="matrix(1 0 0 1 0 -5)" fill="rgb(235,179,118)" stroke="none" stroke-width="1"/><path id="ewet47xn29t157" d="M455.260000,349.820000L450.330000,350.750000C440.460000,326.080000,431.190000,294.490000,425.160000,272.420000C424.230000,269,423.370000,265.800000,422.600000,262.900000C422.583489,262.752252,422.546466,262.607527,422.490000,262.470000C420.970000,256.710000,419.800000,252.120000,419.070000,249.210000L418.200000,245.680000L436,242.600000L437,250.100000L438.490000,261.100000L438.780000,263.260000L439.780000,270.770000L442.490000,290.910000C452.770000,313.610000,455.260000,349.820000,455.260000,349.820000Z" transform="matrix(1 0 0 1 0 -5)" fill="rgb(235,179,118)" stroke="none" stroke-width="1"/><path id="ewet47xn29t158" style="isolation:isolate" d="M438.540000,261.120000L422.600000,262.900000C422.583489,262.752252,422.546466,262.607527,422.490000,262.470000C420.970000,256.710000,419.800000,252.120000,419.070000,249.210000L437.070000,250.100000Z" transform="matrix(1 0 0 1 0 -5)" opacity="0.2" fill="rgb(0,0,0)" stroke="none" stroke-width="1"/><path id="ewet47xn29t159" style="isolation:isolate" d="M413.790000,246.790000L413.230000,262L413.170000,263.740000L397.770000,265.450000C397.640000,263.980000,397.510000,262.570000,397.390000,261.210000C396.790000,254.500000,396.390000,249.210000,396.130000,245.890000Z" transform="matrix(1 0 0 1 0 -5)" opacity="0.2" fill="rgb(0,0,0)" stroke="none" stroke-width="1"/><path id="ewet47xn29t160" d="M399.870000,367.720000C400.801669,366.963491,401.861908,366.380868,403,366L403,366C403,366,406.410000,362.620000,408.060000,352.440000L412.520000,351.270000C414.072609,350.899735,415.691756,351.533834,416.580000,352.860000C416.703107,353.041104,416.797550,353.240109,416.860000,353.450000C417.090521,354.541951,417.250850,355.647548,417.340000,356.760000C417.589592,360.481815,417.612968,364.215351,417.410000,367.940000L416.600000,367.940000L416.280000,360.940000C416.160000,358.550000,414.280000,361.350000,413.810000,363.940000C413.340000,366.530000,412.180000,369.230000,406.960000,369.360000C400.860000,369.450000,398.330000,369.210000,399.870000,367.720000Z" transform="matrix(1 0 0 1 0 -5)" fill="rgb(38,50,56)" stroke="none" stroke-width="1"/><path id="ewet47xn29t161" d="M416.740000,353C417.030000,350.620000,417.120000,346.480000,417.120000,346.480000L407.200000,347.580000C407.200000,347.580000,408.400000,352.290000,407.410000,355.830000C412.410000,354.460000,416.740000,353,416.740000,353Z" transform="matrix(1 0 0 1 0 -5)" fill="rgb(38,50,56)" stroke="none" stroke-width="1"/><path id="ewet47xn29t162" d="M440.230000,367.720000C441.162433,366.967042,442.222626,366.387831,443.360000,366.010000L443.360000,366.010000C443.360000,366.010000,446.770000,362.630000,448.360000,352.450000L452.830000,351.280000C454.382609,350.909735,456.001756,351.543834,456.890000,352.870000C457.013107,353.051104,457.107550,353.250109,457.170000,353.460000C457.400521,354.551951,457.560850,355.657548,457.650000,356.770000C457.897895,360.491959,457.917933,364.225595,457.710000,367.950000L457,367.950000L456.680000,360.950000C456.560000,358.560000,454.680000,361.360000,454.210000,363.950000C453.740000,366.540000,452.580000,369.240000,447.350000,369.370000C441.220000,369.450000,438.690000,369.210000,440.230000,367.720000Z" transform="matrix(1 0 0 1 0 -5)" fill="rgb(38,50,56)" stroke="none" stroke-width="1"/><path id="ewet47xn29t163" d="M457.090000,353C457.390000,350.620000,457.480000,346.480000,457.480000,346.480000L447.560000,347.580000C447.560000,347.580000,448.760000,352.290000,447.770000,355.830000C452.770000,354.460000,457.090000,353,457.090000,353Z" transform="matrix(1 0 0 1 0 -5)" fill="rgb(38,50,56)" stroke="none" stroke-width="1"/><path id="ewet47xn29t164" d="M440.260000,256.210000L421.390000,258.620000L420.660000,258.710000L416.780000,244.490000L415.780000,259.730000L395.560000,258.670000C386.560000,205.800000,401.950000,193.310000,401.950000,193.310000L429.380000,198.830000C441.800000,219.950000,438.850000,244.490000,438.850000,244.490000Z" transform="matrix(1 0 0 1 0 -5)" fill="rgb(37,99,235)" stroke="none" stroke-width="1"/><path id="ewet47xn29t165" d="M414.280000,127.440000C414.280000,129.520000,413.360000,131.200000,412.280000,131.200000C411.200000,131.200000,410.220000,129.520000,410.220000,127.440000C410.220000,125.360000,411.140000,123.680000,412.280000,123.680000C413.420000,123.680000,414.280000,125.360000,414.280000,127.440000Z" transform="matrix(1 0 0 1 0 -5)" fill="none" stroke="rgb(38,50,56)" stroke-width="0.500000" stroke-linecap="round" stroke-linejoin="round"/><path id="ewet47xn29t166" d="M427.830000,140C427.756830,140.068605,427.676348,140.128966,427.590000,140.180000C426.449244,141.049969,425.147560,141.685518,423.760000,142.050000C419.760000,142.990000,416.940000,142.430000,415.130000,140.600000L415.130000,140.600000C412.600000,137.850000,411.970000,132.980000,412.330000,127.100000C412.393022,124.760224,412.825005,122.445064,413.610000,120.240000L413.610000,120.130000C413.636113,120.043957,413.669569,119.960316,413.710000,119.880000C414.717283,117.352845,416.939810,115.510785,419.610000,114.990000C420.749224,114.735281,421.912656,114.604521,423.080000,114.600000C434.550000,114.510000,436.610000,133.490000,427.830000,140Z" transform="matrix(1 0 0 1 0 -5)" fill="rgb(235,179,118)" stroke="none" stroke-width="1"/><path id="ewet47xn29t167" style="isolation:isolate" d="M427.590000,140.210000C426.439977,141.029419,425.137822,141.610799,423.760000,141.920000C419.760000,142.860000,416.940000,142.170000,415.130000,140.310000C417.553821,140.909420,420.107247,140.698684,422.400000,139.710000C424.115792,139.076984,426.026612,139.261071,427.590000,140.210000Z" transform="matrix(1 0 0 1 0 -5)" opacity="0.2" fill="rgb(0,0,0)" stroke="none" stroke-width="1"/><path id="ewet47xn29t168" d="M428.750000,150.560000C429.460000,153.820000,425.230000,155.150000,425.230000,155.150000C418.320000,152.150000,417.040000,148.520000,417.040000,148.520000C422.810000,145.520000,421.140000,137.010000,421.140000,137.010000L422.310000,137.590000L430.540000,139.200000C430.540000,139.200000,428.260000,143.580000,427.960000,144.580000L427.960000,144.580000C426.400000,149.830000,428.750000,150.560000,428.750000,150.560000Z" transform="matrix(1 0 0 1 0 -5)" fill="rgb(235,179,118)" stroke="none" stroke-width="1"/><path id="ewet47xn29t169" d="M413.600000,120.190000C413.600000,120.190000,412.970000,128.190000,420.600000,131.680000C420.600000,131.680000,423.870000,140.030000,428.680000,140.140000C435.250000,140.300000,441.030000,130.970000,438.760000,121.460000C435.790000,109.120000,417.100000,108.120000,413.600000,120.190000Z" transform="matrix(1 0 0 1 0 -5)" fill="rgb(38,50,56)" stroke="none" stroke-width="1"/><path id="ewet47xn29t170" d="M416.720000,129.370000C416.720000,128.120000,417.720000,126.010000,419.720000,126.300000C421.720000,126.590000,422.860000,131.570000,417.900000,132.680000C417.150000,132.840000,416.720000,132,416.720000,129.370000Z" transform="matrix(1 0 0 1 0 -5)" fill="rgb(235,179,118)" stroke="none" stroke-width="1"/><path id="ewet47xn29t171" d="M427.590000,111.650000C427.590000,111.650000,419.930000,109.710000,415.690000,112.800000C410.690000,116.400000,408.860000,120.120000,414.690000,125.900000C414.690000,125.900000,427.560000,121.730000,431.840000,122.610000C434.341659,123.114578,436.796846,123.827051,439.180000,124.740000C440.110000,116.240000,431.870000,109.910000,427.590000,111.650000Z" transform="matrix(1 0 0 1 0 -5)" fill="rgb(38,50,56)" stroke="none" stroke-width="1"/><path id="ewet47xn29t172" d="M416.720000,127.440000C416.720000,127.440000,418.720000,136.700000,415.580000,144.600000C415.580000,144.600000,433.780000,150.910000,440.110000,147.480000C446.440000,144.050000,440.640000,132.540000,440.370000,125.900000C440.100000,119.260000,437.220000,109.450000,427.590000,111.650000C417.960000,113.850000,416.720000,127.440000,416.720000,127.440000Z" transform="matrix(1 0 0 1 0 -5)" fill="rgb(38,50,56)" stroke="none" stroke-width="1"/><line id="ewet47xn29t173" x1="410.170000" y1="121.850000" x2="417.860000" y2="121.850000" fill="none" stroke="rgb(38,50,56)" stroke-width="0.500000" stroke-linecap="round" stroke-linejoin="round"/><path id="ewet47xn29t174" style="isolation:isolate" d="M421.390000,258.620000L420.660000,258.710000L416.780000,244.490000C416.780000,244.490000,425.100000,230.280000,422.500000,222.880000C422.870000,223.400000,431.830000,236.690000,421.390000,258.620000Z" transform="matrix(1 0 0 1 0 -5)" opacity="0.2" fill="rgb(0,0,0)" stroke="none" stroke-width="1"/><path id="ewet47xn29t175" d="M405.810000,149.840000C405.810000,149.840000,414.960000,146.580000,428.750000,150.560000C442.540000,154.540000,443.060000,160.410000,443.060000,160.410000C443.060000,160.410000,434.320000,180.220000,432.940000,202.650000L397,201.310000C397,201.310000,392.710000,169.650000,405.810000,149.840000Z" transform="matrix(1 0 0 1 0 -5)" fill="rgb(38,50,56)" stroke="none" stroke-width="1"/><path id="ewet47xn29t176" style="isolation:isolate" d="M443.060000,160.410000C443.060000,160.410000,434.320000,180.220000,432.940000,202.650000L397,201.310000C396.570522,197.658910,396.350162,193.986249,396.340000,190.310000C396.269088,184.929171,396.603366,179.550639,397.340000,174.220000C398.540000,165.920000,401.010000,157.060000,405.810000,149.800000C405.810000,149.800000,414.960000,146.540000,428.750000,150.520000C442.540000,154.500000,443.060000,160.410000,443.060000,160.410000Z" transform="matrix(1 0 0 1 0 -5)" opacity="0.2" fill="rgb(255,255,255)" stroke="none" stroke-width="1"/><path id="ewet47xn29t177" style="isolation:isolate" d="M405.310000,175.610000C405.310000,175.610000,403.820000,184.730000,396.310000,190.350000C396.239088,184.969171,396.573366,179.590639,397.310000,174.260000Z" transform="matrix(1 0 0 1 0 -5)" opacity="0.2" fill="rgb(0,0,0)" stroke="none" stroke-width="1"/><path id="ewet47xn29t178" d="M365.600000,149.210000L361.070000,142.490000C361.070000,142.490000,360.380000,139.570000,359.500000,138.910000C358.620000,138.250000,349.920000,134.540000,348.870000,134.560000C347.820000,134.580000,347.870000,141.340000,348.870000,142.490000C349.870000,143.640000,355.410000,146.100000,356.870000,146.350000C358.330000,146.600000,357.610000,146.350000,357.610000,146.350000L361.610000,154.350000Z" transform="matrix(1 0 0 1 0 -5)" fill="rgb(235,179,118)" stroke="none" stroke-width="1"/><path id="ewet47xn29t179" d="M405.810000,149.840000C396.105396,153.904326,386.742094,158.739803,377.810000,164.300000L363.180000,144.300000C363.180000,144.300000,359.240000,145.520000,357.780000,152.380000C357.780000,152.380000,365.290000,180.990000,375.050000,183.830000C384.810000,186.670000,405.330000,175.560000,405.330000,175.560000C405.330000,175.560000,411.270000,160.700000,405.810000,149.840000Z" transform="matrix(1 0 0 1 0 -5)" fill="rgb(38,50,56)" stroke="none" stroke-width="1"/><path id="ewet47xn29t180" style="isolation:isolate" d="M405.810000,149.840000C396.105396,153.904326,386.742094,158.739803,377.810000,164.300000L363.180000,144.300000C363.180000,144.300000,359.240000,145.520000,357.780000,152.380000C357.780000,152.380000,365.290000,180.990000,375.050000,183.830000C384.810000,186.670000,405.330000,175.560000,405.330000,175.560000C405.330000,175.560000,411.270000,160.700000,405.810000,149.840000Z" transform="matrix(1 0 0 1 0 -5)" opacity="0.2" fill="rgb(255,255,255)" stroke="none" stroke-width="1"/><path id="ewet47xn29t181" d="M415.060000,148.580000C415.060000,148.580000,418.250000,171.420000,428.360000,172.340000C438.470000,173.260000,443,156.340000,441.290000,154.340000C439.580000,152.340000,426.550000,148.430000,415.060000,148.580000Z" transform="matrix(1 0 0 1 0 -5)" fill="rgb(38,50,56)" stroke="none" stroke-width="1"/><path id="ewet47xn29t182" style="isolation:isolate" d="M415.060000,148.580000C415.060000,148.580000,418.250000,171.420000,428.360000,172.340000C438.470000,173.260000,443,156.340000,441.290000,154.340000C439.580000,152.340000,426.550000,148.430000,415.060000,148.580000Z" transform="matrix(1 0 0 1 0 -5)" opacity="0.3" fill="rgb(255,255,255)" stroke="none" stroke-width="1"/></g></g><g id="ewet47xn29t183_to" transform="translate(-75.194736,222.877335)"><g id="ewet47xn29t183" transform="translate(-94.805264,-222.877335)"><g id="ewet47xn29t184"><polygon id="ewet47xn29t185" points="55.360000,353.670000 62.770000,353.670000 63.380000,336.510000 55.970000,336.510000 55.360000,353.670000" fill="rgb(185,121,100)" stroke="none" stroke-width="1"/><path id="ewet47xn29t186" d="M63.790000,357.810000L54.790000,357.810000C54.483999,357.804407,54.218244,358.019541,54.160000,358.320000L52.700000,364.910000C52.637503,365.192469,52.689863,365.488197,52.845545,365.732037C53.001227,365.975877,53.247460,366.147824,53.530000,366.210000L53.780000,366.210000C56.690000,366.210000,58.780000,365.980000,62.460000,365.980000C64.720000,365.980000,71.460000,366.220000,74.620000,366.220000C77.780000,366.220000,78.130000,363.150000,76.860000,362.870000C71.150000,361.620000,66.860000,359.870000,65.030000,358.260000C64.688503,357.958492,64.245385,357.797683,63.790000,357.810000Z" transform="matrix(1 0 0 1 0 -5)" fill="rgb(38,50,56)" stroke="none" stroke-width="1"/><path id="ewet47xn29t187" d="M64.300000,358.840000C64.230522,358.820570,64.179358,358.761534,64.170000,358.690000C64.157085,358.621994,64.189367,358.553395,64.250000,358.520000C64.520000,358.350000,66.910000,356.880000,67.730000,357.300000C67.919346,357.388246,68.037502,357.581235,68.030000,357.790000C68.085629,358.147177,67.944165,358.506572,67.660000,358.730000C67.246014,359.019568,66.743278,359.154103,66.240000,359.110000C65.585542,359.089596,64.935158,358.999079,64.300000,358.840000ZM64.810000,358.590000C65.674650,358.882978,66.618317,358.836510,67.450000,358.460000C67.625764,358.300708,67.711792,358.065066,67.680000,357.830000C67.680000,357.690000,67.620000,357.620000,67.570000,357.620000C67.494570,357.600524,67.415430,357.600524,67.340000,357.620000C66.443203,357.781469,65.584882,358.110548,64.810000,358.590000Z" transform="matrix(1 0 0 1 0 -5)" fill="rgb(37,99,235)" stroke="none" stroke-width="1"/><path id="ewet47xn29t188" d="M64.250000,358.870000C64.196843,358.834630,64.166402,358.773747,64.170000,358.710000C64.170000,358.610000,64.360000,356.480000,65.170000,355.780000C65.371093,355.599224,65.642809,355.518444,65.910000,355.560000C66.183699,355.562554,66.419703,355.753013,66.480000,356.020000C66.630000,356.800000,65.150000,358.430000,64.380000,358.850000L64.300000,358.850000ZM65.440000,356C64.921081,356.667012,64.617617,357.476250,64.570000,358.320000C65.330000,357.740000,66.270000,356.510000,66.180000,356.030000C66.180000,356.030000,66.180000,355.850000,65.920000,355.850000L65.840000,355.850000C65.692611,355.848279,65.549915,355.901789,65.440000,356Z" transform="matrix(1 0 0 1 0 -5)" fill="rgb(37,99,235)" stroke="none" stroke-width="1"/><polygon id="ewet47xn29t189" style="isolation:isolate" points="55.970000,336.520000 63.380000,336.520000 63.060000,345.370000 55.650000,345.370000 55.970000,336.520000" opacity="0.2" fill="rgb(0,0,0)" stroke="none" stroke-width="1"/><polygon id="ewet47xn29t190" points="93.490000,354.220000 101.140000,355.030000 102.570000,338.550000 94.930000,337.740000 93.490000,354.220000" fill="rgb(185,121,100)" stroke="none" stroke-width="1"/><path id="ewet47xn29t191" d="M101.940000,357.570000L93,357.570000C92.696739,357.572215,92.435311,357.783847,92.370000,358.080000L90.910000,364.680000C90.836905,364.957158,90.876985,365.252004,91.021412,365.499593C91.165839,365.747182,91.402764,365.927202,91.680000,366L91.940000,366C94.850000,366,96.940000,365.770000,100.630000,365.770000C102.880000,365.770000,109.630000,366,112.780000,366C115.930000,366,116.290000,362.930000,115.020000,362.650000C109.310000,361.410000,105.020000,359.650000,103.190000,358.040000C102.846384,357.733165,102.400652,357.565570,101.940000,357.570000Z" transform="matrix(1 0 0 1 0 -5)" fill="rgb(38,50,56)" stroke="none" stroke-width="1"/><path id="ewet47xn29t192" d="M102.450000,358.600000C102.380522,358.580570,102.329358,358.521534,102.320000,358.450000C102.304936,358.379024,102.342833,358.307442,102.410000,358.280000C102.670000,358.110000,105.060000,356.640000,105.880000,357.070000C106.069658,357.152545,106.188911,357.343349,106.180000,357.550000C106.247852,357.923759,106.110514,358.305253,105.820000,358.550000C105.398552,358.830740,104.894722,358.961101,104.390000,358.920000C103.733725,358.883248,103.083312,358.775963,102.450000,358.600000ZM102.960000,358.360000C103.825909,358.649836,104.769602,358.599791,105.600000,358.220000C105.777269,358.061726,105.863599,357.825258,105.830000,357.590000C105.830000,357.450000,105.770000,357.390000,105.720000,357.390000C105.648463,357.367044,105.571537,357.367044,105.500000,357.390000C104.609806,357.558410,103.760768,357.898025,103,358.390000Z" transform="matrix(1 0 0 1 0 -5)" fill="rgb(37,99,235)" stroke="none" stroke-width="1"/><path id="ewet47xn29t193" d="M102.410000,358.640000C102.354516,358.605659,102.320535,358.545249,102.320000,358.480000C102.320000,358.370000,102.510000,356.250000,103.370000,355.550000C103.575729,355.376992,103.842446,355.294093,104.110000,355.320000C104.385034,355.318792,104.623099,355.510914,104.680000,355.780000C104.830000,356.570000,103.350000,358.200000,102.580000,358.610000L102.500000,358.610000ZM103.590000,355.760000C103.071295,356.423306,102.767734,357.229315,102.720000,358.070000C103.480000,357.500000,104.420000,356.260000,104.330000,355.780000C104.330000,355.780000,104.330000,355.600000,104.070000,355.600000L104,355.600000C103.848886,355.604035,103.703903,355.660613,103.590000,355.760000Z" transform="matrix(1 0 0 1 0 -5)" fill="rgb(37,99,235)" stroke="none" stroke-width="1"/><polygon id="ewet47xn29t194" style="isolation:isolate" points="94.930000,337.740000 102.570000,338.550000 101.820000,347.050000 94.180000,346.240000 94.930000,337.740000" opacity="0.2" fill="rgb(0,0,0)" stroke="none" stroke-width="1"/><path id="ewet47xn29t195" d="M59,191.050000L98.330000,191.050000C102.060000,211.460000,113.760000,283.670000,105.330000,348.050000L92,346.400000C92,346.400000,93.230000,260.990000,81.490000,229.400000C80.140000,246.300000,78.490000,264.280000,77.140000,273.850000C73.720000,297.400000,66.400000,348.850000,66.400000,348.850000L52.910000,348.850000C52.910000,348.850000,55.680000,299.590000,56.910000,276.450000C58.360000,251.300000,59,196.210000,59,191.050000Z" transform="matrix(1 0 0 1 0 -5)" fill="rgb(38,50,56)" stroke="none" stroke-width="1"/><polygon id="ewet47xn29t196" points="106.890000,346.110000 90.420000,343.660000 90.930000,339.100000 108.060000,341.350000 106.890000,346.110000" fill="rgb(37,99,235)" stroke="none" stroke-width="1"/><polygon id="ewet47xn29t197" points="68.090000,343.940000 52.110000,343.940000 52.110000,339.170000 68.690000,338.860000 68.090000,343.940000" fill="rgb(37,99,235)" stroke="none" stroke-width="1"/><path id="ewet47xn29t198" style="isolation:isolate" d="M81.550000,229.370000C83.479878,234.905835,84.948224,240.591914,85.940000,246.370000C87.040000,231.370000,82.640000,215.370000,82.640000,215.370000Z" transform="matrix(1 0 0 1 0 -5)" opacity="0.2" fill="rgb(0,0,0)" stroke="none" stroke-width="1"/><path id="ewet47xn29t199" d="M57.910000,197.890000L57.010000,202.640000C57.010000,202.640000,84.520000,206.200000,101.630000,206.100000L101.030000,202.840000Z" transform="matrix(1 0 0 1 0 -5)" fill="rgb(37,99,235)" stroke="none" stroke-width="1"/><path id="ewet47xn29t200" d="M113.740000,156.760000C113.740000,156.760000,123.250000,186.760000,129.740000,188.760000C136.230000,190.760000,152.740000,165.970000,152.740000,165.970000C152.740000,165.970000,167.570000,165.830000,168.230000,164.820000C168.890000,163.810000,164.380000,153.360000,163.300000,153.350000C162.220000,153.340000,149.300000,158.200000,148.810000,159.020000C148.320000,159.840000,133.490000,174.020000,132.810000,173.600000C132.130000,173.180000,126.490000,155.350000,126.490000,155.350000Z" transform="matrix(1 0 0 1 0 -5)" fill="rgb(185,121,100)" stroke="none" stroke-width="1"/><path id="ewet47xn29t201" d="M154.700000,164.350000L155.050000,164.260000L154.880000,164.150000C154.825346,164.221291,154.765160,164.288165,154.700000,164.350000Z" transform="matrix(1 0 0 1 0 -5)" fill="rgb(185,121,100)" stroke="none" stroke-width="1"/><path id="ewet47xn29t202" d="M108.340000,153.300000L109.500000,155.430000L114.910000,165.430000L116,167.500000L131.190000,162.220000C131.190000,162.220000,124.870000,138.640000,122.680000,136.220000Z" transform="matrix(1 0 0 1 0 -5)" fill="rgb(37,99,235)" stroke="none" stroke-width="1"/><path id="ewet47xn29t203" style="isolation:isolate" d="M108.340000,153.300000L109.500000,155.430000L114.910000,165.430000L116,167.500000L131.190000,162.220000C131.190000,162.220000,124.870000,138.640000,122.680000,136.220000Z" transform="matrix(1 0 0 1 0 -5)" opacity="0.4" fill="rgb(255,255,255)" stroke="none" stroke-width="1"/><path id="ewet47xn29t204" style="isolation:isolate" d="M109.500000,155.430000L114.910000,165.430000C118.260000,158.860000,117.290000,149.860000,117.290000,149.860000Z" transform="matrix(1 0 0 1 0 -5)" opacity="0.2" fill="rgb(0,0,0)" stroke="none" stroke-width="1"/><path id="ewet47xn29t205" d="M122.720000,136.230000C116.936379,129.551340,108.665400,125.538759,99.840000,125.130000C84.960000,124.430000,80.280000,125.910000,74.840000,130.770000C66.890000,137.870000,57,199,57,199C71.509257,203.039485,86.581691,204.677793,101.620000,203.850000C116.658309,203.022207,101.800000,186.850000,107.170000,175.440000C113.217897,162.729637,118.412721,149.630661,122.720000,136.230000Z" transform="matrix(1 0 0 1 0 -5)" fill="rgb(37,99,235)" stroke="none" stroke-width="1"/><path id="ewet47xn29t206" style="isolation:isolate" d="M57,199C71.509244,203.040026,86.581222,204.681662,101.620000,203.860000C116.658778,203.038338,101.620000,201.760000,101.910000,198.550000C102.030000,197.030000,102.210000,195.250000,102.460000,193.330000C102.710000,191.410000,103.070000,189.220000,103.460000,187.040000C103.700000,185.870000,103.980000,184.690000,104.280000,183.520000C104.977453,180.742211,105.928098,178.034212,107.120000,175.430000C107.780000,174.030000,108.420000,172.640000,109.040000,171.280000C110.110000,168.900000,111.130000,166.590000,112.040000,164.380000C114.040000,159.730000,115.740000,155.480000,117.160000,151.760000C118.160000,149.090000,119.060000,146.700000,119.790000,144.650000C120.600000,142.360000,121.240000,140.480000,121.710000,139.080000C122.320000,137.230000,122.620000,136.220000,122.620000,136.220000C122.123144,135.598023,121.588819,135.006926,121.020000,134.450000C115.439106,128.949009,108.060519,125.646754,100.240000,125.150000L99.740000,125.150000C88.400000,124.620000,82.990000,125.350000,78.650000,127.880000C77.250567,128.717550,75.940423,129.695969,74.740000,130.800000C73.611151,132.023418,72.722380,133.448165,72.120000,135C70.271697,139.298128,68.753961,143.730989,67.580000,148.260000L66.920000,150.690000C65.920000,154.400000,64.980000,158.350000,64.080000,162.350000C63.820000,163.490000,63.570000,164.630000,63.320000,165.760000C62.950000,167.500000,62.580000,169.230000,62.230000,170.940000C61.330000,175.250000,60.520000,179.430000,59.810000,183.190000C58.810000,188.590000,58,193.110000,57.520000,195.920000C57.190000,197.900000,57,199,57,199ZM100.700000,125.700000C101.703272,125.725378,102.704585,125.802145,103.700000,125.930000C107.700000,126.470000,113.850000,129.680000,113.700000,131.200000C113.550000,132.720000,111.210000,136.600000,105.230000,135.660000C103.146424,135.275464,101.168992,134.450398,99.430000,133.240000C96.130000,131.060000,93.730000,128.110000,93.490000,127.150000C93.190000,126,97.070000,125.610000,100.710000,125.720000Z" transform="matrix(1 0 0 1 0 -5)" opacity="0.4" fill="rgb(255,255,255)" stroke="none" stroke-width="1"/><path id="ewet47xn29t207" d="M87.880000,146.080000C87.880000,146.080000,80,165.150000,78.380000,181L99.690000,183.720000C99.690000,183.720000,109.250000,157.950000,111.230000,149.890000C111.230000,149.870000,94.210000,148.170000,87.880000,146.080000Z" transform="matrix(1 0 0 1 0 -5)" fill="rgb(37,99,235)" stroke="none" stroke-width="1"/><polygon id="ewet47xn29t208" style="isolation:isolate" points="107.070000,145.620000 110.030000,145.910000 107.860000,147.590000 107.070000,145.620000" opacity="0.4" fill="rgb(255,255,255)" stroke="none" stroke-width="1"/><path id="ewet47xn29t209" d="M95.470000,127.200000C97.080000,131.800000,103.070000,133.900000,106.210000,134.200000C108.586937,134.574870,110.920976,133.313670,111.910000,131.120000C112.899024,128.926330,108.320000,129.330000,108.680000,127.320000C108.934328,126.090805,109.438038,124.926827,110.160000,123.900000C110.533829,123.313675,110.941173,122.749404,111.380000,122.210000L105.630000,109.880000C104.350000,115.220000,100.420000,125.480000,95.470000,127.200000Z" transform="matrix(1 0 0 1 0 -5)" fill="rgb(185,121,100)" stroke="none" stroke-width="1"/><path id="ewet47xn29t210" style="isolation:isolate" d="M105.400000,115.570000C102.660000,121.570000,106.530000,125.700000,108.680000,127.280000C108.934328,126.050805,109.438038,124.886827,110.160000,123.860000Z" transform="matrix(1 0 0 1 0 -5)" opacity="0.2" fill="rgb(0,0,0)" stroke="none" stroke-width="1"/><path id="ewet47xn29t211" d="M124.680000,99.560000C124.680000,99.560000,126.520000,109.720000,121.220000,113.790000C115.920000,117.860000,115.380000,98.880000,115.380000,98.880000Z" transform="matrix(1 0 0 1 0 -5)" fill="rgb(185,121,100)" stroke="none" stroke-width="1"/><path id="ewet47xn29t212" style="isolation:isolate" d="M124.680000,99.560000C124.680000,99.560000,126.520000,109.720000,121.220000,113.790000C115.920000,117.860000,115.380000,98.880000,115.380000,98.880000Z" transform="matrix(1 0 0 1 0 -5)" opacity="0.4" fill="rgb(0,0,0)" stroke="none" stroke-width="1"/><path id="ewet47xn29t213" d="M105.730000,122.340000C108.158944,125.726094,112.550491,127.072617,116.460000,125.630000C118.944318,124.757860,121.001340,122.969146,122.210000,120.630000C122.380000,120.320000,122.530000,119.980000,122.680000,119.630000C125.160000,113.320000,125.680000,97.920000,119,98.490000C113.480000,98.960000,108.080000,97.260000,105.260000,102.030000C104.454548,103.386961,103.981662,104.915275,103.880000,106.490000C103.280000,113.850000,102.580000,118.120000,105.730000,122.340000Z" transform="matrix(1 0 0 1 0 -5)" fill="rgb(185,121,100)" stroke="none" stroke-width="1"/><path id="ewet47xn29t214" d="M114.610000,110.130000C114.490000,110.710000,114.770000,111.240000,115.160000,111.300000C115.550000,111.360000,115.930000,110.910000,116.020000,110.300000C116.110000,109.690000,115.850000,109.190000,115.470000,109.140000C115.090000,109.090000,114.700000,109.530000,114.610000,110.130000Z" transform="matrix(1 0 0 1 0 -5)" fill="rgb(38,50,56)" stroke="none" stroke-width="1"/><path id="ewet47xn29t215" d="M121.300000,111.080000C121.180000,111.660000,121.470000,112.190000,121.850000,112.250000C122.230000,112.310000,122.620000,111.860000,122.700000,111.250000C122.780000,110.640000,122.540000,110.140000,122.150000,110.080000C121.760000,110.020000,121.380000,110.520000,121.300000,111.080000Z" transform="matrix(1 0 0 1 0 -5)" fill="rgb(38,50,56)" stroke="none" stroke-width="1"/><path id="ewet47xn29t216" d="M119.130000,111.070000C119.580531,112.977867,120.290473,114.814968,121.240000,116.530000C120.333283,117.001150,119.264998,117.048711,118.320000,116.660000Z" transform="matrix(1 0 0 1 0 -5)" fill="rgb(162,78,63)" stroke="none" stroke-width="1"/><path id="ewet47xn29t217" d="M112.850000,107.670000C112.974330,107.707209,113.109042,107.672569,113.200000,107.580000C113.820738,106.940509,114.705663,106.629489,115.590000,106.740000C115.779807,106.777481,115.965297,106.658237,116.010000,106.470000C116.030817,106.381084,116.014991,106.287531,115.966085,106.210410C115.917179,106.133288,115.839305,106.079083,115.750000,106.060000L115.750000,106.060000C114.647979,105.898472,113.534700,106.269565,112.750000,107.060000C112.615382,107.199484,112.615382,107.420516,112.750000,107.560000L112.750000,107.560000Z" transform="matrix(1 0 0 1 0 -5)" fill="rgb(38,50,56)" stroke="none" stroke-width="1"/><path id="ewet47xn29t218" d="M124.500000,109.180000C124.564393,109.204621,124.635607,109.204621,124.700000,109.180000C124.876677,109.135744,124.984093,108.956718,124.940000,108.780000L124.940000,108.780000L124.940000,108.780000C124.618223,107.697838,123.790097,106.839870,122.720000,106.480000C122.633812,106.451722,122.539897,106.459056,122.459144,106.500372C122.378390,106.541687,122.317494,106.613558,122.290000,106.700000L122.290000,106.700000L122.290000,106.700000C122.238586,106.884891,122.345643,107.076702,122.530000,107.130000L122.530000,107.130000C123.368782,107.438533,124.013399,108.123902,124.270000,108.980000C124.310817,109.079222,124.396072,109.153356,124.500000,109.180000Z" transform="matrix(1 0 0 1 0 -5)" fill="rgb(38,50,56)" stroke="none" stroke-width="1"/><path id="ewet47xn29t219" d="M113.680000,116.920000C113.680000,116.920000,114.910000,119.560000,117.420000,119.460000" transform="matrix(1 0 0 1 0 -5)" fill="none" stroke="rgb(38,50,56)" stroke-width="0.500000" stroke-linecap="round" stroke-linejoin="round"/><path id="ewet47xn29t220" d="M110.490000,98.230000L110.590000,101.490000C109.407310,101.919450,108.757067,103.189389,109.100000,104.400000C109.880000,107.200000,107.950000,111.260000,105.720000,112.740000C105.720000,112.740000,105.720000,111.560000,104.720000,111.740000C103.720000,111.920000,103.410000,118.060000,105.060000,121.150000C105.060000,121.150000,101.530000,117.900000,100.480000,111.330000C99.480000,105.260000,99.670000,101.410000,100.480000,98.500000Z" transform="matrix(1 0 0 1 0 -5)" fill="rgb(185,121,100)" stroke="none" stroke-width="1"/><path id="ewet47xn29t221" style="isolation:isolate" d="M110.490000,98.230000L110.590000,101.490000C109.407310,101.919450,108.757067,103.189389,109.100000,104.400000C109.880000,107.200000,107.950000,111.260000,105.720000,112.740000C105.720000,112.740000,105.720000,111.560000,104.720000,111.740000C103.720000,111.920000,103.410000,118.060000,105.060000,121.150000C105.060000,121.150000,101.530000,117.900000,100.480000,111.330000C99.480000,105.260000,99.670000,101.410000,100.480000,98.500000Z" transform="matrix(1 0 0 1 0 -5)" opacity="0.4" fill="rgb(0,0,0)" stroke="none" stroke-width="1"/><path id="ewet47xn29t222" d="M99.920000,102.140000C103.488654,102.489332,107.090139,102.269935,110.590000,101.490000C120.660000,99.490000,124.950000,103.190000,124.950000,103.190000C126.360947,101.920888,127.128058,100.085696,127.040000,98.190000C126.750000,95.290000,122.720000,94.800000,122.720000,94.800000C122.720000,94.800000,121.510000,91.530000,118.840000,90.540000C116.170000,89.550000,113.490000,92,113.490000,92C113.490000,92,110.160000,88.780000,106.280000,89.700000C103.588183,90.252344,101.649459,92.612167,101.630000,95.360000C101.610541,98.107833,97.080000,95.820000,97.180000,98.160000C97.280000,100.500000,99.920000,102.140000,99.920000,102.140000Z" transform="matrix(1 0 0 1 0 -5)" fill="rgb(38,50,56)" stroke="none" stroke-width="1"/><ellipse id="ewet47xn29t223" rx="3.270000" ry="3.770000" transform="matrix(1 0 0 1 115.39000000000000 105.62000000000000)" fill="none" stroke="rgb(38,50,56)" stroke-width="0.500000" stroke-linecap="round" stroke-linejoin="round"/><path id="ewet47xn29t224" d="M126.880000,111.180000C126.629193,112.923025,125.053974,114.162024,123.300921,113.995147C121.547869,113.828271,120.234709,112.314322,120.317270,110.555280C120.399832,108.796239,121.849024,107.411943,123.610000,107.410000C125.548437,107.559242,127.006221,109.239928,126.880000,111.180000Z" transform="matrix(1 0 0 1 0 -5)" fill="none" stroke="rgb(38,50,56)" stroke-width="0.500000" stroke-linecap="round" stroke-linejoin="round"/><path id="ewet47xn29t225" d="M118.650000,111.070000C118.650000,111.070000,119.710000,110.410000,120.340000,111.180000" transform="matrix(1 0 0 1 0 -5)" fill="none" stroke="rgb(38,50,56)" stroke-width="0.500000" stroke-linecap="round" stroke-linejoin="round"/><path id="ewet47xn29t226" d="M112.120000,110.620000L106.390000,109.850000C105.638941,109.753162,104.880133,109.958148,104.280000,110.420000L104.030000,110.620000" transform="matrix(1 0 0 1 0 -5)" fill="none" stroke="rgb(38,50,56)" stroke-width="0.500000" stroke-linecap="round" stroke-linejoin="round"/><path id="ewet47xn29t227" d="M99.860000,112C100.434641,113.758744,101.682219,115.218447,103.330000,116.060000C105.520000,117.150000,107.080000,115.310000,106.860000,113C106.660000,110.940000,105.290000,107.840000,102.860000,107.720000C101.806232,107.684734,100.805937,108.184065,100.200761,109.047450C99.595586,109.910834,99.467405,111.021460,99.860000,112Z" transform="matrix(1 0 0 1 0 -5)" fill="rgb(185,121,100)" stroke="none" stroke-width="1"/><path id="ewet47xn29t228" style="isolation:isolate" d="M63.320000,165.790000C72.760000,161.870000,80.220000,145.680000,80.220000,145.680000L74.860000,142.440000L67.580000,148.290000L66.920000,150.720000C65.920000,154.430000,64.980000,158.380000,64.080000,162.380000C63.820000,163.520000,63.570000,164.660000,63.320000,165.790000Z" transform="matrix(1 0 0 1 0 -5)" opacity="0.2" fill="rgb(0,0,0)" stroke="none" stroke-width="1"/><polygon id="ewet47xn29t229" points="115.310000,162.510000 131.590000,156.530000 132.060000,157.910000 115.770000,163.710000 115.310000,162.510000" fill="rgb(37,99,235)" stroke="none" stroke-width="1"/><rect id="ewet47xn29t230" width="29.470000" height="47.780000" rx="0" ry="0" transform="matrix(0.15660700000000 -0.98766100000000 0.98766100000000 0.15660700000000 21.31489981000001 225.29009116999984)" fill="rgb(37,99,235)" stroke="none" stroke-width="1"/><polyline id="ewet47xn29t231" points="42.630000,207.260000 33.040000,212.230000 40.620000,219.920000" fill="none" stroke="rgb(255,255,255)" stroke-width="2" stroke-linecap="round" stroke-linejoin="round"/><polyline id="ewet47xn29t232" points="51.790000,221.690000 61.370000,216.720000 53.800000,209.030000" fill="none" stroke="rgb(255,255,255)" stroke-width="2" stroke-linecap="round" stroke-linejoin="round"/><line id="ewet47xn29t233" x1="43.960000" y1="220.450000" x2="50.460000" y2="208.500000" fill="none" stroke="rgb(255,255,255)" stroke-width="2" stroke-linecap="round" stroke-linejoin="round"/><path id="ewet47xn29t234" d="M69.210000,133.380000C69.210000,133.380000,51.420000,151.230000,49,154.700000C46.580000,158.170000,41.940000,196.640000,41.940000,196.640000C41.940000,196.640000,40.940000,196.980000,40.880000,197.810000C40.820000,198.640000,40.720000,209.440000,40.880000,209.940000C41.040000,210.440000,49.220000,215.490000,50.430000,214.290000C51.640000,213.090000,53.320000,200.860000,53.320000,200.860000L49,196.640000C49,196.640000,54,168.310000,57.170000,163.720000C60.340000,159.130000,73.260000,149.310000,73.260000,149.310000Z" transform="matrix(1 0 0 1 0 -5)" fill="rgb(185,121,100)" stroke="none" stroke-width="1"/><path id="ewet47xn29t235" d="M82.880000,126.190000C85.470000,131.680000,83.500000,143.240000,78.720000,147.320000C73.662423,151.514043,68.315874,155.346850,62.720000,158.790000L54,147.360000C54,147.360000,63.280000,138.300000,68.900000,133.080000C72.722422,129.374489,77.612905,126.964229,82.880000,126.190000Z" transform="matrix(1 0 0 1 0 -5)" fill="rgb(37,99,235)" stroke="none" stroke-width="1"/><path id="ewet47xn29t236" style="isolation:isolate" d="M82.880000,126.190000C85.470000,131.680000,83.500000,143.240000,78.720000,147.320000C73.662423,151.514043,68.315874,155.346850,62.720000,158.790000L54,147.360000C54,147.360000,63.280000,138.300000,68.900000,133.080000C72.722422,129.374489,77.612905,126.964229,82.880000,126.190000Z" transform="matrix(1 0 0 1 0 -5)" opacity="0.4" fill="rgb(255,255,255)" stroke="none" stroke-width="1"/><polygon id="ewet47xn29t237" points="54,141.630000 52.920000,143.100000 62.030000,155.010000 63.320000,154.090000 54,141.630000" fill="rgb(37,99,235)" stroke="none" stroke-width="1"/></g></g></g></svg>